<svg xmlns="http://www.w3.org/2000/svg" width="216.57" height="73.528" viewBox="0 0 216.57 73.528">
  <g id="Grupo_129" data-name="Grupo 129" transform="translate(-354.378 -381.169)">
    <path id="Trazado_499" data-name="Trazado 499" d="M381.415,381.169A27.036,27.036,0,1,0,408.45,408.2,27.036,27.036,0,0,0,381.415,381.169Zm.979,41.684a14.054,14.054,0,0,1-13.1,0,11.151,11.151,0,0,1-4.436-4.63,14.076,14.076,0,0,1-1.519-6.061c-.007.074-.012.2-.012.377V392.372a3.247,3.247,0,0,1,.919-2.291,3.124,3.124,0,0,1,2.3-.973,3.2,3.2,0,0,1,3.266,3.265v20.117h.041a7.02,7.02,0,0,0,.849,2.972,5.351,5.351,0,0,0,2.209,2.173,6.381,6.381,0,0,0,2.951.706,6.3,6.3,0,0,0,2.91-.706,5.491,5.491,0,0,0,2.235-2.182,7.679,7.679,0,0,0,.907-3.959c0-.185,0-.3,0-.456l3.788,8.924A10.649,10.649,0,0,1,382.394,422.853Zm13.395-.994-.009.019a3.98,3.98,0,0,1-1.395,1.686,3.71,3.71,0,0,1-2.164.686h-.441a3.708,3.708,0,0,1-2.166-.686,3.961,3.961,0,0,1-1.395-1.688.088.088,0,0,1-.007-.018l-1.046-2.38L382.574,408.5c-.062-.166-.129-.327-.2-.481s-.151-.3-.237-.445a5.338,5.338,0,0,0-2.223-2.152,6.458,6.458,0,0,0-2.92-.691,6.765,6.765,0,0,0-1.158.1,6.517,6.517,0,0,0-1.806.593,13.9,13.9,0,0,0-2.873,1.908v-7.851a30.7,30.7,0,0,1,4.679-.842c.379-.027.765-.042,1.158-.042a13.81,13.81,0,0,1,4.651.762,11.6,11.6,0,0,1,1.877.858,11.316,11.316,0,0,1,4.454,4.624c.046.087.09.175.135.263a12.825,12.825,0,0,1,.814,2.062l3.077,7.8,5.606-14.22c.007-.019.016-.038.025-.058a3.226,3.226,0,0,1,5.237-.9,3.245,3.245,0,0,1,.92,2.291,3.622,3.622,0,0,1-.317,1.4Z" fill="#1f2228"/>
    <path id="Trazado_500" data-name="Trazado 500" d="M1197.469,469.021a3.879,3.879,0,0,1-3.912-3.912v-23a3.939,3.939,0,0,1,1.116-2.783,3.794,3.794,0,0,1,2.8-1.184,3.884,3.884,0,0,1,3.966,3.966v23a3.8,3.8,0,0,1-1.184,2.8A3.942,3.942,0,0,1,1197.469,469.021Zm-.107-33.931a4.245,4.245,0,0,1-4.234-4.234v-.215a4.246,4.246,0,0,1,4.234-4.234h.321a4.246,4.246,0,0,1,4.234,4.234v.215a4.245,4.245,0,0,1-4.234,4.234Z" transform="translate(-731.943 -39.478)" fill="#c6303b"/>
    <path id="Trazado_501" data-name="Trazado 501" d="M1298.891,547.856a15.919,15.919,0,0,1-7.98-1.966,13.547,13.547,0,0,1-5.387-5.624,18.662,18.662,0,0,1,0-16.238,13.555,13.555,0,0,1,5.387-5.624,17.075,17.075,0,0,1,15.907,0,13.736,13.736,0,0,1,5.409,5.616,18.424,18.424,0,0,1,0,16.255,13.725,13.725,0,0,1-5.409,5.615A15.812,15.812,0,0,1,1298.891,547.856Zm0-23.968a7.96,7.96,0,0,0-3.6.838,6.322,6.322,0,0,0-2.667,2.6,9.39,9.39,0,0,0-1.081,4.765,9.508,9.508,0,0,0,1.081,4.819,6.5,6.5,0,0,0,2.681,2.637,7.753,7.753,0,0,0,3.585.857,7.646,7.646,0,0,0,3.532-.857,6.664,6.664,0,0,0,2.715-2.649,9.327,9.327,0,0,0,1.1-4.807,9.211,9.211,0,0,0-1.1-4.754,6.485,6.485,0,0,0-2.7-2.614A7.849,7.849,0,0,0,1298.891,523.888Z" transform="translate(-810.95 -118.044)" fill="#c6303b"/>
    <path id="Trazado_502" data-name="Trazado 502" d="M1536.895,549.423a4.507,4.507,0,0,1-2.63-.834,4.837,4.837,0,0,1-1.694-2.049l-.009-.021-9.33-22.306a4.414,4.414,0,0,1-.384-1.7,3.938,3.938,0,0,1,1.116-2.783,3.8,3.8,0,0,1,2.8-1.183,4.009,4.009,0,0,1,3.562,2.27c.011.024.021.048.031.073l6.809,17.268,6.809-17.268c.009-.024.019-.047.03-.071a3.915,3.915,0,0,1,6.359-1.089,3.94,3.94,0,0,1,1.116,2.783,4.41,4.41,0,0,1-.383,1.7l-9.331,22.308-.01.023a4.846,4.846,0,0,1-1.694,2.048,4.5,4.5,0,0,1-2.629.834Z" transform="translate(-1019.674 -119.88)" fill="#c6303b"/>
    <path id="Trazado_503" data-name="Trazado 503" d="M1760.255,547.856a11.506,11.506,0,0,1-5.019-1.113,9.116,9.116,0,0,1-3.806-3.361,9.263,9.263,0,0,1-1.414-5.069,8.979,8.979,0,0,1,3.734-7.525c2.347-1.766,5.745-2.661,10.1-2.661h4.939a4.338,4.338,0,0,0-1.192-2.9c-.874-.78-2.37-1.175-4.445-1.175a16.909,16.909,0,0,0-3.321.292,29.116,29.116,0,0,0-3.336.918q-.054.018-.108.032a4.4,4.4,0,0,1-1.063.153,3.409,3.409,0,0,1-2.454-1.029,3.472,3.472,0,0,1-1.029-2.508,3.548,3.548,0,0,1,2.309-3.418,25.178,25.178,0,0,1,9.86-2.049,13.634,13.634,0,0,1,7.008,1.709,10.96,10.96,0,0,1,4.33,4.5,12.843,12.843,0,0,1,1.368,5.851v15.174a3.8,3.8,0,0,1-1.184,2.8,3.942,3.942,0,0,1-2.782,1.116,3.893,3.893,0,0,1-3.6-2.344A15.324,15.324,0,0,1,1760.255,547.856Zm4.235-12.815a12.256,12.256,0,0,0-5.377.888,1.922,1.922,0,0,0-1.22,1.849,2.492,2.492,0,0,0,.816,1.994c.4.363,1.316.8,3.369.8a8.143,8.143,0,0,0,3.861-.981,11.466,11.466,0,0,0,2.9-2.127v-2.418Z" transform="translate(-1217.914 -118.044)" fill="#c6303b"/>
    <path id="Trazado_504" data-name="Trazado 504" d="M1997.12,468.586a3.878,3.878,0,0,1-3.911-3.912v-34.8a3.937,3.937,0,0,1,1.116-2.783,3.794,3.794,0,0,1,2.8-1.184,3.884,3.884,0,0,1,3.966,3.966v34.8a3.794,3.794,0,0,1-1.184,2.8A3.942,3.942,0,0,1,1997.12,468.586Z" transform="translate(-1430.139 -39.043)" fill="#c6303b"/>
    <path id="Trazado_505" data-name="Trazado 505" d="M962.3,445.019a13.736,13.736,0,0,0-5.409-5.616,15.823,15.823,0,0,0-7.927-1.965,16.2,16.2,0,0,0-7.348,1.628v-9.19a3.884,3.884,0,0,0-3.966-3.966,3.794,3.794,0,0,0-2.8,1.184,3.938,3.938,0,0,0-1.116,2.783v24.49c0-.22,0-.369.014-.458a17.1,17.1,0,0,0,1.845,7.358,13.546,13.546,0,0,0,5.387,5.624,17.074,17.074,0,0,0,15.907,0,13.726,13.726,0,0,0,5.409-5.615,18.424,18.424,0,0,0,0-16.255Zm-7.09,12.881a6.665,6.665,0,0,1-2.715,2.649,7.646,7.646,0,0,1-3.532.857,7.753,7.753,0,0,1-3.585-.857,6.5,6.5,0,0,1-2.681-2.637,9.511,9.511,0,0,1-1.081-4.819,9.392,9.392,0,0,1,1.081-4.765,6.324,6.324,0,0,1,2.667-2.6,7.96,7.96,0,0,1,3.6-.838,7.85,7.85,0,0,1,3.547.838,6.486,6.486,0,0,1,2.7,2.614,9.21,9.21,0,0,1,1.1,4.754A9.326,9.326,0,0,1,955.207,457.9Z" transform="translate(-505.58 -39.043)" fill="#c6303b"/>
    <path id="Trazado_459" data-name="Trazado 459" d="M356.2,905.614a3.344,3.344,0,0,1-1.333-1.333,4.5,4.5,0,0,1,0-4.064,3.338,3.338,0,0,1,1.333-1.333,3.92,3.92,0,0,1,1.915-.464,4.537,4.537,0,0,1,1.3.171,5.518,5.518,0,0,1,1.136.491.429.429,0,0,1,.235.4.4.4,0,0,1-.118.283.408.408,0,0,1-.309.122.425.425,0,0,1-.192-.042,4.886,4.886,0,0,0-.917-.374,3.786,3.786,0,0,0-1.035-.129,3.039,3.039,0,0,0-1.563.379,2.433,2.433,0,0,0-.97,1.034,3.565,3.565,0,0,0,0,2.976,2.426,2.426,0,0,0,.97,1.035,3.039,3.039,0,0,0,1.563.378,3.762,3.762,0,0,0,1.035-.129,4.843,4.843,0,0,0,.917-.373.461.461,0,0,1,.5.074.393.393,0,0,1,.118.289.43.43,0,0,1-.235.405,5.514,5.514,0,0,1-1.136.491,4.541,4.541,0,0,1-1.3.171A3.922,3.922,0,0,1,356.2,905.614Z" transform="translate(-0.001 -451.382)" fill="#c6303b"/>
    <path id="Trazado_460" data-name="Trazado 460" d="M416.309,906.144a.646.646,0,0,1-.2-.475v-6.336a.484.484,0,0,1,.139-.347.455.455,0,0,1,.341-.144.492.492,0,0,1,.491.491v6.037h3.488a.492.492,0,0,1,.491.491.454.454,0,0,1-.144.341.481.481,0,0,1-.347.139h-3.787A.645.645,0,0,1,416.309,906.144Z" transform="translate(-53.872 -451.752)" fill="#c6303b"/>
    <path id="Trazado_461" data-name="Trazado 461" d="M463.847,892.148a2.707,2.707,0,0,1-1.6-2.582v-4.214a.482.482,0,0,1,.139-.347.455.455,0,0,1,.341-.144.491.491,0,0,1,.491.491V889.6a1.94,1.94,0,0,0,.293,1.088,1.842,1.842,0,0,0,.775.673,2.455,2.455,0,0,0,2.048,0,1.843,1.843,0,0,0,.775-.673,1.942,1.942,0,0,0,.293-1.088v-4.245a.483.483,0,0,1,.139-.347.456.456,0,0,1,.341-.144.491.491,0,0,1,.491.491v4.214a2.707,2.707,0,0,1-1.6,2.582,3.5,3.5,0,0,1-2.922,0ZM465.1,884.4a.282.282,0,0,1-.08-.208.358.358,0,0,1,.075-.2l.544-.96a.368.368,0,0,1,.352-.2.392.392,0,0,1,.283.107.379.379,0,0,1,.112.288.386.386,0,0,1-.107.267l-.736.875a.291.291,0,0,1-.235.116.28.28,0,0,1-.208-.078Z" transform="translate(-94.131 -437.773)" fill="#c6303b"/>
    <path id="Trazado_462" data-name="Trazado 462" d="M522.62,905.564a.481.481,0,0,1-.213-.176.455.455,0,0,1,.037-.576.411.411,0,0,1,.315-.133.508.508,0,0,1,.2.042,5.1,5.1,0,0,0,2.1.437q1.866,0,1.867-1.226a.685.685,0,0,0-.24-.534,1.737,1.737,0,0,0-.594-.334q-.352-.123-1-.294a12.842,12.842,0,0,1-1.4-.432,2.443,2.443,0,0,1-.917-.624,1.571,1.571,0,0,1-.384-1.109,2,2,0,0,1,.32-1.1,2.2,2.2,0,0,1,.944-.789,3.5,3.5,0,0,1,1.5-.294,6.076,6.076,0,0,1,2.123.352.415.415,0,0,1,.3.427.469.469,0,0,1-.117.31.387.387,0,0,1-.309.138.486.486,0,0,1-.171-.042,5.212,5.212,0,0,0-1.717-.288,2.619,2.619,0,0,0-1.371.319,1,1,0,0,0-.528.9.827.827,0,0,0,.25.624,1.716,1.716,0,0,0,.629.373,9.945,9.945,0,0,0,1.029.282,10.855,10.855,0,0,1,1.36.405,2.229,2.229,0,0,1,.885.63,1.7,1.7,0,0,1,.368,1.152,1.794,1.794,0,0,1-.341,1.072,2.235,2.235,0,0,1-.96.741,3.574,3.574,0,0,1-1.429.267A6.319,6.319,0,0,1,522.62,905.564Z" transform="translate(-146.557 -451.381)" fill="#c6303b"/>
    <path id="Trazado_463" data-name="Trazado 463" d="M570.4,906.617a.465.465,0,0,1-.139-.342v-6.112h-2.176a.437.437,0,0,1-.448-.425c0-.007,0-.015,0-.023a.451.451,0,0,1,.129-.325.425.425,0,0,1,.32-.134H573.4a.456.456,0,0,1,.459.453v.006a.427.427,0,0,1-.133.32.452.452,0,0,1-.325.128h-2.165v6.112a.457.457,0,0,1-.144.342.484.484,0,0,1-.347.139A.465.465,0,0,1,570.4,906.617Z" transform="translate(-186.1 -452.113)" fill="#c6303b"/>
    <path id="Trazado_464" data-name="Trazado 464" d="M625.822,906.567a.464.464,0,0,1-.139-.341V899.75a.481.481,0,0,1,.139-.346.452.452,0,0,1,.341-.144h4.277a.456.456,0,0,1,.459.454v.005a.426.426,0,0,1-.134.32.451.451,0,0,1-.325.128h-3.786v2.359h3.4a.454.454,0,0,1,.459.449v.009a.427.427,0,0,1-.133.321.452.452,0,0,1-.325.129h-3.4V905.8h3.786a.456.456,0,0,1,.459.454v.005a.424.424,0,0,1-.134.32.452.452,0,0,1-.325.129h-4.277A.463.463,0,0,1,625.822,906.567Z" transform="translate(-236.757 -452.116)" fill="#c6303b"/>
    <path id="Trazado_465" data-name="Trazado 465" d="M679.252,906.618a.465.465,0,0,1-.139-.342v-6.528a.48.48,0,0,1,.139-.346.454.454,0,0,1,.342-.144h2.485a3.367,3.367,0,0,1,2.176.6,1.933,1.933,0,0,1,.725,1.568,2.04,2.04,0,0,1-.357,1.168,1.992,1.992,0,0,1-1.04.763,1.466,1.466,0,0,1,1.051.954,4.189,4.189,0,0,1,.283,1.478v.49a.474.474,0,0,1-.467.48h-.013a.484.484,0,0,1-.357-.133.471.471,0,0,1-.134-.347v-.32a4.784,4.784,0,0,0-.1-.987,1.591,1.591,0,0,0-.459-.811,1.507,1.507,0,0,0-1.1-.357h-2.208v2.474a.457.457,0,0,1-.144.342.484.484,0,0,1-.347.139A.465.465,0,0,1,679.252,906.618Zm2.763-3.734a2.577,2.577,0,0,0,1.456-.362,1.166,1.166,0,0,0,.539-1.024,1.144,1.144,0,0,0-.464-.982,2.76,2.76,0,0,0-1.584-.342h-1.877v2.709Z" transform="translate(-283.383 -452.114)" fill="#c6303b"/>
    <path id="Trazado_466" data-name="Trazado 466" d="M760.673,906.53a.464.464,0,0,1-.139-.341v-6.475a.481.481,0,0,1,.139-.346.454.454,0,0,1,.342-.144h2.517a2.671,2.671,0,0,1,1.765.523,1.921,1.921,0,0,1,.331,2.437,1.8,1.8,0,0,1-.752.613,2.365,2.365,0,0,1,1.051.651,1.611,1.611,0,0,1,.411,1.13,1.9,1.9,0,0,1-.661,1.536,3.2,3.2,0,0,1-2.08.555h-2.582A.462.462,0,0,1,760.673,906.53Zm2.6-4.085a2.116,2.116,0,0,0,1.333-.32,1.1,1.1,0,0,0,.384-.9.941.941,0,0,0-.411-.8,1.879,1.879,0,0,0-1.125-.3h-1.952v2.315Zm.224,3.316a2.54,2.54,0,0,0,1.467-.32,1.061,1.061,0,0,0,.432-.906q0-1.216-1.888-1.216H761.5v2.442Z" transform="translate(-354.435 -452.08)" fill="#c6303b"/>
    <path id="Trazado_467" data-name="Trazado 467" d="M818.725,906.255a.461.461,0,0,1-.139-.341v-6.582a.481.481,0,0,1,.139-.347.455.455,0,0,1,.341-.144.492.492,0,0,1,.491.491v6.582a.453.453,0,0,1-.144.341.482.482,0,0,1-.347.14A.462.462,0,0,1,818.725,906.255Z" transform="translate(-405.095 -451.752)" fill="#c6303b"/>
    <path id="Trazado_468" data-name="Trazado 468" d="M840.719,905.576a3.358,3.358,0,0,1-1.3-1.356,4.338,4.338,0,0,1,0-3.967,3.358,3.358,0,0,1,1.3-1.356,4.157,4.157,0,0,1,3.92,0,3.4,3.4,0,0,1,1.3,1.36,4.275,4.275,0,0,1,0,3.957,3.4,3.4,0,0,1-1.3,1.36,4.157,4.157,0,0,1-3.92,0Zm3.445-.8a2.526,2.526,0,0,0,.96-1.045,3.538,3.538,0,0,0,0-2.987,2.525,2.525,0,0,0-.96-1.045,3.066,3.066,0,0,0-2.969,0,2.534,2.534,0,0,0-.955,1.045,3.538,3.538,0,0,0,0,2.987,2.534,2.534,0,0,0,.955,1.045A3.061,3.061,0,0,0,844.164,904.776Z" transform="translate(-422.855 -451.371)" fill="#c6303b"/>
    <g id="Grupo_106" data-name="Grupo 106" transform="translate(428.174 447.035)">
      <path id="Trazado_473" data-name="Trazado 473" d="M935.707,905.624a3.341,3.341,0,0,1-1.333-1.333,4.5,4.5,0,0,1,0-4.064,3.339,3.339,0,0,1,1.333-1.333,3.921,3.921,0,0,1,1.915-.464,4.538,4.538,0,0,1,1.3.171,5.55,5.55,0,0,1,1.136.491.43.43,0,0,1,.235.406.4.4,0,0,1-.117.282.409.409,0,0,1-.309.122.425.425,0,0,1-.194-.042,4.89,4.89,0,0,0-.917-.374,3.792,3.792,0,0,0-1.035-.129,3.039,3.039,0,0,0-1.562.379,2.435,2.435,0,0,0-.971,1.034,3.565,3.565,0,0,0,0,2.976,2.427,2.427,0,0,0,.971,1.034,3.034,3.034,0,0,0,1.563.379,3.792,3.792,0,0,0,1.035-.129,4.844,4.844,0,0,0,.917-.373.425.425,0,0,1,.194-.043.419.419,0,0,1,.309.118.391.391,0,0,1,.117.288.429.429,0,0,1-.235.4,5.488,5.488,0,0,1-1.136.491,4.54,4.54,0,0,1-1.3.171A3.92,3.92,0,0,1,935.707,905.624Z" transform="translate(-933.888 -898.426)" fill="#c6303b"/>
      <path id="Trazado_474" data-name="Trazado 474" d="M992.219,905.576a3.361,3.361,0,0,1-1.3-1.356,4.34,4.34,0,0,1,0-3.967,3.361,3.361,0,0,1,1.3-1.356,4.157,4.157,0,0,1,3.92,0,3.4,3.4,0,0,1,1.3,1.36,4.275,4.275,0,0,1,0,3.957,3.4,3.4,0,0,1-1.3,1.36,4.157,4.157,0,0,1-3.92,0Zm3.445-.8a2.527,2.527,0,0,0,.96-1.045,3.538,3.538,0,0,0,0-2.987,2.526,2.526,0,0,0-.96-1.045,3.066,3.066,0,0,0-2.969,0,2.534,2.534,0,0,0-.955,1.045,3.538,3.538,0,0,0,0,2.987,2.534,2.534,0,0,0,.955,1.045A3.067,3.067,0,0,0,995.664,904.776Z" transform="translate(-983.236 -898.407)" fill="#c6303b"/>
      <path id="Trazado_475" data-name="Trazado 475" d="M1062.1,906.251a.46.46,0,0,1-.139-.341v-6.368a.686.686,0,0,1,.2-.5.66.66,0,0,1,.491-.208H1063a.648.648,0,0,1,.389.129.788.788,0,0,1,.261.32l2.421,6.037,2.421-6.037a.785.785,0,0,1,.261-.32.647.647,0,0,1,.389-.129h.352a.659.659,0,0,1,.491.208.686.686,0,0,1,.2.5v6.368a.475.475,0,0,1-.47.48h-.01a.48.48,0,0,1-.347-.139.451.451,0,0,1-.144-.341v-6.058l-2.464,6.09a.719.719,0,0,1-.272.325.748.748,0,0,1-.822,0,.714.714,0,0,1-.272-.325l-2.464-6.09v6.058a.452.452,0,0,1-.144.341.481.481,0,0,1-.347.139A.463.463,0,0,1,1062.1,906.251Z" transform="translate(-1045.649 -898.783)" fill="#c6303b"/>
      <path id="Trazado_476" data-name="Trazado 476" d="M1144.042,906.126a2.749,2.749,0,0,1-1.152-.976,2.779,2.779,0,0,1-.448-1.606v-4.214a.483.483,0,0,1,.139-.347.457.457,0,0,1,.341-.144.491.491,0,0,1,.491.491v4.245a1.943,1.943,0,0,0,.293,1.088,1.838,1.838,0,0,0,.775.672,2.454,2.454,0,0,0,2.048,0,1.84,1.84,0,0,0,.775-.672,1.944,1.944,0,0,0,.293-1.088v-4.245a.484.484,0,0,1,.139-.347.458.458,0,0,1,.341-.143.491.491,0,0,1,.491.491v4.214a2.705,2.705,0,0,1-1.6,2.581,3.494,3.494,0,0,1-2.922,0Z" transform="translate(-1115.883 -898.785)" fill="#c6303b"/>
      <path id="Trazado_477" data-name="Trazado 477" d="M1206.5,906.251a.46.46,0,0,1-.139-.341v-6.368a.685.685,0,0,1,.2-.5.659.659,0,0,1,.49-.208h.139a.723.723,0,0,1,.587.32l4.106,5.93v-5.76a.482.482,0,0,1,.139-.347.457.457,0,0,1,.341-.143.491.491,0,0,1,.491.491V905.7a.661.661,0,0,1-.208.491.687.687,0,0,1-.5.2h-.129a.665.665,0,0,1-.32-.08.732.732,0,0,1-.245-.208l-4.128-5.963v5.771a.451.451,0,0,1-.144.341.482.482,0,0,1-.347.139A.463.463,0,0,1,1206.5,906.251Z" transform="translate(-1171.666 -898.783)" fill="#c6303b"/>
      <path id="Trazado_478" data-name="Trazado 478" d="M1273.759,906.251a.461.461,0,0,1-.139-.341v-6.582a.484.484,0,0,1,.139-.347.457.457,0,0,1,.342-.143.491.491,0,0,1,.491.491v6.582a.451.451,0,0,1-.144.341.481.481,0,0,1-.347.14A.464.464,0,0,1,1273.759,906.251Z" transform="translate(-1230.358 -898.783)" fill="#c6303b"/>
      <path id="Trazado_479" data-name="Trazado 479" d="M1297.632,906.55a.464.464,0,0,1-.139-.342v-6.475a.483.483,0,0,1,.139-.347.456.456,0,0,1,.341-.143h2.144a3.777,3.777,0,0,1,2.064.539,3.47,3.47,0,0,1,1.274,1.392,3.976,3.976,0,0,1,0,3.584,3.47,3.47,0,0,1-1.274,1.392,3.775,3.775,0,0,1-2.064.538h-2.144A.464.464,0,0,1,1297.632,906.55Zm2.368-.768a3.183,3.183,0,0,0,1.536-.357,2.551,2.551,0,0,0,1.024-.991,3.149,3.149,0,0,0,0-2.933,2.555,2.555,0,0,0-1.024-.993,3.187,3.187,0,0,0-1.536-.357h-1.536v5.632Z" transform="translate(-1251.191 -899.135)" fill="#c6303b"/>
      <path id="Trazado_480" data-name="Trazado 480" d="M1355.336,906.247a.47.47,0,0,1-.133-.341.57.57,0,0,1,.053-.214l2.72-6.421a.812.812,0,0,1,.24-.315.588.588,0,0,1,.379-.123h.107a.587.587,0,0,1,.378.123.811.811,0,0,1,.24.315l2.72,6.421a.584.584,0,0,1,.053.214.47.47,0,0,1-.133.341.459.459,0,0,1-.347.139.486.486,0,0,1-.272-.08.511.511,0,0,1-.187-.218l-.693-1.664h-3.627l-.693,1.664a.512.512,0,0,1-.186.218.488.488,0,0,1-.272.08A.46.46,0,0,1,1355.336,906.247Zm1.872-2.709h2.88l-1.44-3.466Z" transform="translate(-1301.552 -898.779)" fill="#c6303b"/>
      <path id="Trazado_481" data-name="Trazado 481" d="M1421.768,906.55a.464.464,0,0,1-.139-.342v-6.475a.484.484,0,0,1,.139-.347.458.458,0,0,1,.342-.143h2.144a3.775,3.775,0,0,1,2.064.539,3.472,3.472,0,0,1,1.275,1.392,3.979,3.979,0,0,1,0,3.584,3.471,3.471,0,0,1-1.275,1.392,3.775,3.775,0,0,1-2.064.538h-2.143A.465.465,0,0,1,1421.768,906.55Zm2.368-.768a3.183,3.183,0,0,0,1.536-.357,2.552,2.552,0,0,0,1.024-.991,3.146,3.146,0,0,0,0-2.933,2.553,2.553,0,0,0-1.024-.993,3.19,3.19,0,0,0-1.536-.357H1422.6v5.632Z" transform="translate(-1359.519 -899.135)" fill="#c6303b"/>
      <path id="Trazado_482" data-name="Trazado 482" d="M1502.849,905.892l-2.635-6.39a.515.515,0,0,1-.032-.182.5.5,0,0,1,.129-.357.465.465,0,0,1,.352-.133.447.447,0,0,1,.272.091.571.571,0,0,1,.187.24l2.507,6.25,2.507-6.25a.576.576,0,0,1,.187-.24.445.445,0,0,1,.272-.091.464.464,0,0,1,.352.133.5.5,0,0,1,.129.357.513.513,0,0,1-.032.182l-2.635,6.39a.713.713,0,0,1-.661.491h-.235A.712.712,0,0,1,1502.849,905.892Z" transform="translate(-1428.068 -898.776)" fill="#c6303b"/>
      <path id="Trazado_483" data-name="Trazado 483" d="M1556.95,906.247a.47.47,0,0,1-.134-.341.575.575,0,0,1,.054-.214l2.72-6.421a.809.809,0,0,1,.24-.315.588.588,0,0,1,.379-.123h.106a.588.588,0,0,1,.379.123.811.811,0,0,1,.24.315l2.72,6.421a.58.58,0,0,1,.054.214.47.47,0,0,1-.134.341.459.459,0,0,1-.346.139.484.484,0,0,1-.272-.08.512.512,0,0,1-.187-.218l-.693-1.664h-3.626l-.693,1.664a.514.514,0,0,1-.187.218.482.482,0,0,1-.272.08A.457.457,0,0,1,1556.95,906.247Zm1.872-2.709h2.88l-1.44-3.466Z" transform="translate(-1477.491 -898.779)" fill="#c6303b"/>
      <path id="Trazado_484" data-name="Trazado 484" d="M1623.439,906.143a.646.646,0,0,1-.2-.475v-6.336a.484.484,0,0,1,.139-.347.457.457,0,0,1,.342-.143.491.491,0,0,1,.491.49v6.038h3.488a.491.491,0,0,1,.491.491.454.454,0,0,1-.144.341.484.484,0,0,1-.347.139h-3.786A.644.644,0,0,1,1623.439,906.143Z" transform="translate(-1535.458 -898.787)" fill="#c6303b"/>
      <path id="Trazado_485" data-name="Trazado 485" d="M1671.625,906.562a.465.465,0,0,1-.138-.342v-6.475a.484.484,0,0,1,.138-.347.459.459,0,0,1,.342-.143h4.277a.456.456,0,0,1,.459.453v.006a.425.425,0,0,1-.133.32.452.452,0,0,1-.325.129h-3.786v2.356h3.4a.456.456,0,0,1,.459.454v.005a.424.424,0,0,1-.134.32.452.452,0,0,1-.325.129h-3.4v2.368h3.786a.455.455,0,0,1,.459.451v.008a.424.424,0,0,1-.133.32.452.452,0,0,1-.325.129h-4.277A.466.466,0,0,1,1671.625,906.562Z" transform="translate(-1577.559 -899.146)" fill="#c6303b"/>
      <path id="Trazado_486" data-name="Trazado 486" d="M1725.064,906.251a.46.46,0,0,1-.139-.341v-6.368a.686.686,0,0,1,.2-.5.659.659,0,0,1,.491-.208h.138a.722.722,0,0,1,.587.32l4.106,5.93v-5.76a.484.484,0,0,1,.139-.347.456.456,0,0,1,.341-.143.491.491,0,0,1,.491.49V905.7a.661.661,0,0,1-.208.491.687.687,0,0,1-.5.2h-.129a.666.666,0,0,1-.32-.08.734.734,0,0,1-.245-.208l-4.128-5.963v5.771a.451.451,0,0,1-.144.341.481.481,0,0,1-.347.139A.464.464,0,0,1,1725.064,906.251Z" transform="translate(-1624.193 -898.783)" fill="#c6303b"/>
      <path id="Trazado_487" data-name="Trazado 487" d="M1790.477,905.624a3.34,3.34,0,0,1-1.333-1.333,4.5,4.5,0,0,1,0-4.064,3.339,3.339,0,0,1,1.333-1.333,3.922,3.922,0,0,1,1.915-.464,4.531,4.531,0,0,1,1.3.171,5.553,5.553,0,0,1,1.136.491.43.43,0,0,1,.235.406.4.4,0,0,1-.117.282.411.411,0,0,1-.31.122.42.42,0,0,1-.192-.042,4.908,4.908,0,0,0-.918-.374,3.791,3.791,0,0,0-1.035-.129,3.04,3.04,0,0,0-1.563.379,2.432,2.432,0,0,0-.97,1.034,3.568,3.568,0,0,0,0,2.976,2.424,2.424,0,0,0,.97,1.034,3.034,3.034,0,0,0,1.563.379,3.791,3.791,0,0,0,1.035-.129,4.873,4.873,0,0,0,.918-.373.459.459,0,0,1,.5.075.392.392,0,0,1,.117.288.429.429,0,0,1-.235.4,5.491,5.491,0,0,1-1.136.491,4.535,4.535,0,0,1-1.3.171A3.922,3.922,0,0,1,1790.477,905.624Z" transform="translate(-1679.81 -898.426)" fill="#c6303b"/>
      <path id="Trazado_488" data-name="Trazado 488" d="M1850.537,906.251a.463.463,0,0,1-.139-.341v-6.582a.486.486,0,0,1,.139-.347.458.458,0,0,1,.342-.143.491.491,0,0,1,.49.49v6.582a.451.451,0,0,1-.144.341.485.485,0,0,1-.346.14A.464.464,0,0,1,1850.537,906.251Z" transform="translate(-1733.688 -898.783)" fill="#c6303b"/>
      <path id="Trazado_489" data-name="Trazado 489" d="M1870.462,906.247a.47.47,0,0,1-.133-.341.577.577,0,0,1,.053-.214l2.72-6.421a.818.818,0,0,1,.24-.315.59.59,0,0,1,.379-.123h.107a.587.587,0,0,1,.378.123.81.81,0,0,1,.24.315l2.721,6.421a.579.579,0,0,1,.053.214.471.471,0,0,1-.133.341.459.459,0,0,1-.346.139.483.483,0,0,1-.272-.08.512.512,0,0,1-.187-.218l-.693-1.664h-3.626l-.693,1.664a.514.514,0,0,1-.187.218.488.488,0,0,1-.273.08A.459.459,0,0,1,1870.462,906.247Zm1.872-2.709h2.88l-1.44-3.466Z" transform="translate(-1751.08 -898.779)" fill="#c6303b"/>
      <path id="Trazado_490" data-name="Trazado 490" d="M1936.895,906.251a.459.459,0,0,1-.139-.341v-6.368a.685.685,0,0,1,.2-.5.66.66,0,0,1,.49-.208h.137a.721.721,0,0,1,.587.32l4.107,5.93v-5.76a.484.484,0,0,1,.138-.347.458.458,0,0,1,.342-.143.491.491,0,0,1,.491.491V905.7a.661.661,0,0,1-.208.491.686.686,0,0,1-.5.2h-.129a.663.663,0,0,1-.32-.08.73.73,0,0,1-.245-.208l-4.128-5.963v5.771a.453.453,0,0,1-.143.341.484.484,0,0,1-.347.139A.463.463,0,0,1,1936.895,906.251Z" transform="translate(-1809.048 -898.783)" fill="#c6303b"/>
      <path id="Trazado_491" data-name="Trazado 491" d="M2000.215,906.247a.47.47,0,0,1-.133-.341.579.579,0,0,1,.053-.214l2.72-6.421a.811.811,0,0,1,.24-.315.588.588,0,0,1,.378-.123h.106a.588.588,0,0,1,.379.123.813.813,0,0,1,.24.315l2.72,6.421a.575.575,0,0,1,.054.214.469.469,0,0,1-.134.341.458.458,0,0,1-.346.139.483.483,0,0,1-.272-.08.518.518,0,0,1-.187-.218l-.693-1.664h-3.626l-.693,1.664a.51.51,0,0,1-.187.218.486.486,0,0,1-.272.08A.459.459,0,0,1,2000.215,906.247Zm1.872-2.709h2.88l-1.44-3.466Z" transform="translate(-1864.31 -898.779)" fill="#c6303b"/>
    </g>
  </g>
</svg>
