<svg width="229" height="77" viewBox="0 0 229 77" fill="none" xmlns="http://www.w3.org/2000/svg">
<path d="M89.9962 21.6705H93.0303L96.2349 29.4887H96.3712L99.5758 21.6705H102.61V33.3069H100.224V25.733H100.127L97.1155 33.2501H95.4905L92.4792 25.7046H92.3826V33.3069H89.9962V21.6705ZM104.637 33.3069V21.6705H112.478V23.6989H107.097V26.4717H112.074V28.5001H107.097V31.2785H112.5V33.3069H104.637ZM124.167 21.6705V33.3069H122.042L116.979 25.983H116.894V33.3069H114.434V21.6705H116.593L121.616 28.9887H121.718V21.6705H124.167ZM135.932 21.6705V33.3069H133.807L128.745 25.983H128.66V33.3069H126.199V21.6705H128.358L133.381 28.9887H133.483V21.6705H135.932ZM137.522 23.6989V21.6705H147.079V23.6989H143.516V33.3069H141.084V23.6989H137.522ZM149.236 33.3069H146.6L150.617 21.6705H153.787L157.799 33.3069H155.162L152.248 24.3296H152.157L149.236 33.3069ZM149.072 28.733H155.299V30.6535H149.072V28.733ZM165.246 25.0171C165.201 24.5588 165.006 24.2027 164.661 23.9489C164.316 23.6951 163.848 23.5682 163.258 23.5682C162.856 23.5682 162.517 23.6251 162.241 23.7387C161.964 23.8486 161.752 24.002 161.604 24.1989C161.46 24.3959 161.388 24.6194 161.388 24.8694C161.381 25.0777 161.424 25.2595 161.519 25.4148C161.617 25.5701 161.752 25.7046 161.922 25.8182C162.093 25.9281 162.29 26.0247 162.513 26.108C162.737 26.1876 162.975 26.2557 163.229 26.3126L164.275 26.5626C164.782 26.6762 165.248 26.8277 165.672 27.0171C166.097 27.2065 166.464 27.4395 166.775 27.716C167.085 27.9925 167.326 28.3182 167.496 28.6932C167.67 29.0682 167.759 29.4982 167.763 29.983C167.759 30.6951 167.578 31.3126 167.218 31.8353C166.862 32.3542 166.347 32.7576 165.672 33.0455C165.002 33.3296 164.193 33.4717 163.246 33.4717C162.307 33.4717 161.489 33.3277 160.792 33.0398C160.098 32.752 159.557 32.3258 159.167 31.7614C158.78 31.1932 158.578 30.4906 158.559 29.6535H160.939C160.966 30.0436 161.078 30.3694 161.275 30.6307C161.475 30.8883 161.742 31.0834 162.076 31.216C162.413 31.3448 162.794 31.4092 163.218 31.4092C163.634 31.4092 163.996 31.3486 164.303 31.2273C164.614 31.1061 164.854 30.9376 165.025 30.7217C165.195 30.5057 165.28 30.2576 165.28 29.9773C165.28 29.716 165.203 29.4963 165.047 29.3182C164.896 29.1402 164.672 28.9887 164.377 28.8637C164.085 28.7387 163.727 28.6251 163.303 28.5228L162.036 28.2046C161.055 27.966 160.28 27.5929 159.712 27.0853C159.144 26.5777 158.862 25.894 158.866 25.0342C158.862 24.3296 159.049 23.7141 159.428 23.1876C159.811 22.6611 160.335 22.2501 161.002 21.9546C161.669 21.6592 162.426 21.5114 163.275 21.5114C164.138 21.5114 164.892 21.6592 165.536 21.9546C166.184 22.2501 166.688 22.6611 167.047 23.1876C167.407 23.7141 167.593 24.3239 167.604 25.0171H165.246ZM169.418 33.3069V21.6705H171.878V26.8012H172.032L176.219 21.6705H179.168L174.85 26.8807L179.219 33.3069H176.276L173.089 28.5228L171.878 30.0001V33.3069H169.418ZM190.486 27.4887C190.486 28.7576 190.246 29.8372 189.765 30.7273C189.287 31.6175 188.636 32.2974 187.81 32.7671C186.988 33.233 186.064 33.466 185.037 33.466C184.003 33.466 183.075 33.2311 182.253 32.7614C181.431 32.2917 180.782 31.6118 180.304 30.7217C179.827 29.8315 179.589 28.7539 179.589 27.4887C179.589 26.2198 179.827 25.1402 180.304 24.2501C180.782 23.3599 181.431 22.6819 182.253 22.216C183.075 21.7463 184.003 21.5114 185.037 21.5114C186.064 21.5114 186.988 21.7463 187.81 22.216C188.636 22.6819 189.287 23.3599 189.765 24.2501C190.246 25.1402 190.486 26.2198 190.486 27.4887ZM187.992 27.4887C187.992 26.6667 187.869 25.9736 187.623 25.4092C187.38 24.8448 187.037 24.4167 186.594 24.1251C186.151 23.8334 185.632 23.6876 185.037 23.6876C184.443 23.6876 183.924 23.8334 183.481 24.1251C183.037 24.4167 182.693 24.8448 182.447 25.4092C182.204 25.9736 182.083 26.6667 182.083 27.4887C182.083 28.3107 182.204 29.0039 182.447 29.5682C182.693 30.1326 183.037 30.5607 183.481 30.8523C183.924 31.144 184.443 31.2898 185.037 31.2898C185.632 31.2898 186.151 31.144 186.594 30.8523C187.037 30.5607 187.38 30.1326 187.623 29.5682C187.869 29.0039 187.992 28.3107 187.992 27.4887ZM184.168 20.5455L185.373 17.9603H187.611L185.878 20.5455H184.168ZM192.309 33.3069V21.6705H194.769V31.2785H199.758V33.3069H192.309ZM203.847 21.6705V33.3069H201.387V21.6705H203.847ZM215.604 21.6705V33.3069H213.479L208.417 25.983H208.331V33.3069H205.871V21.6705H208.03L213.053 28.9887H213.155V21.6705H215.604ZM227.37 21.6705V33.3069H225.245L220.182 25.983H220.097V33.3069H217.637V21.6705H219.796L224.819 28.9887H224.921V21.6705H227.37ZM92.4565 41.6705V53.3069H89.9962V41.6705H92.4565ZM90.3655 40.5455L91.5701 37.9603H93.8087L92.0758 40.5455H90.3655ZM98.1837 53.3069V41.6705H100.644V46.8012H100.797L104.985 41.6705H107.934L103.616 46.8807L107.985 53.3069H105.042L101.854 48.5228L100.644 50.0001V53.3069H98.1837ZM119.252 47.4887C119.252 48.7576 119.011 49.8372 118.53 50.7273C118.053 51.6175 117.402 52.2974 116.576 52.7671C115.754 53.233 114.83 53.466 113.803 53.466C112.769 53.466 111.841 53.2311 111.019 52.7614C110.197 52.2917 109.547 51.6118 109.07 50.7217C108.593 49.8315 108.354 48.7539 108.354 47.4887C108.354 46.2198 108.593 45.1402 109.07 44.2501C109.547 43.3599 110.197 42.6819 111.019 42.216C111.841 41.7463 112.769 41.5114 113.803 41.5114C114.83 41.5114 115.754 41.7463 116.576 42.216C117.402 42.6819 118.053 43.3599 118.53 44.2501C119.011 45.1402 119.252 46.2198 119.252 47.4887ZM116.758 47.4887C116.758 46.6667 116.634 45.9736 116.388 45.4092C116.146 44.8448 115.803 44.4167 115.36 44.1251C114.917 43.8334 114.398 43.6876 113.803 43.6876C113.208 43.6876 112.689 43.8334 112.246 44.1251C111.803 44.4167 111.458 44.8448 111.212 45.4092C110.97 45.9736 110.848 46.6667 110.848 47.4887C110.848 48.3107 110.97 49.0039 111.212 49.5682C111.458 50.1326 111.803 50.5607 112.246 50.8523C112.689 51.144 113.208 51.2898 113.803 51.2898C114.398 51.2898 114.917 51.144 115.36 50.8523C115.803 50.5607 116.146 50.1326 116.388 49.5682C116.634 49.0039 116.758 48.3107 116.758 47.4887ZM112.934 40.5455L114.138 37.9603H116.377L114.644 40.5455H112.934ZM121.074 53.3069V41.6705H125.665C126.548 41.6705 127.3 41.8391 127.921 42.1762C128.542 42.5095 129.016 42.9736 129.341 43.5682C129.671 44.1592 129.836 44.841 129.836 45.6137C129.836 46.3864 129.669 47.0682 129.336 47.6592C129.002 48.2501 128.519 48.7103 127.887 49.0398C127.258 49.3694 126.497 49.5342 125.603 49.5342H122.677V47.5626H125.205C125.679 47.5626 126.069 47.4811 126.375 47.3182C126.686 47.1516 126.917 46.9224 127.069 46.6307C127.224 46.3353 127.302 45.9963 127.302 45.6137C127.302 45.2273 127.224 44.8902 127.069 44.6023C126.917 44.3107 126.686 44.0853 126.375 43.9262C126.065 43.7633 125.671 43.6819 125.194 43.6819H123.535V53.3069H121.074ZM132.096 53.3069H129.459L133.476 41.6705H136.647L140.658 53.3069H138.022L135.107 44.3296H135.016L132.096 53.3069ZM131.931 48.733H138.158V50.6535H131.931V48.733ZM142.708 41.6705L145.52 50.5114H145.628L148.447 41.6705H151.174L147.162 53.3069H143.992L139.975 41.6705H142.708ZM162.611 47.4887C162.611 48.7576 162.371 49.8372 161.89 50.7273C161.412 51.6175 160.761 52.2974 159.935 52.7671C159.113 53.233 158.189 53.466 157.162 53.466C156.128 53.466 155.2 53.2311 154.378 52.7614C153.556 52.2917 152.907 51.6118 152.429 50.7217C151.952 49.8315 151.714 48.7539 151.714 47.4887C151.714 46.2198 151.952 45.1402 152.429 44.2501C152.907 43.3599 153.556 42.6819 154.378 42.216C155.2 41.7463 156.128 41.5114 157.162 41.5114C158.189 41.5114 159.113 41.7463 159.935 42.216C160.761 42.6819 161.412 43.3599 161.89 44.2501C162.371 45.1402 162.611 46.2198 162.611 47.4887ZM160.117 47.4887C160.117 46.6667 159.994 45.9736 159.748 45.4092C159.505 44.8448 159.162 44.4167 158.719 44.1251C158.276 43.8334 157.757 43.6876 157.162 43.6876C156.568 43.6876 156.049 43.8334 155.606 44.1251C155.162 44.4167 154.818 44.8448 154.572 45.4092C154.329 45.9736 154.208 46.6667 154.208 47.4887C154.208 48.3107 154.329 49.0039 154.572 49.5682C154.818 50.1326 155.162 50.5607 155.606 50.8523C156.049 51.144 156.568 51.2898 157.162 51.2898C157.757 51.2898 158.276 51.144 158.719 50.8523C159.162 50.5607 159.505 50.1326 159.748 49.5682C159.994 49.0039 160.117 48.3107 160.117 47.4887ZM172.15 45.4319C172.07 45.1554 171.958 44.9111 171.814 44.6989C171.67 44.483 171.494 44.3012 171.286 44.1535C171.081 44.002 170.847 43.8864 170.581 43.8069C170.32 43.7273 170.03 43.6876 169.712 43.6876C169.117 43.6876 168.595 43.8353 168.144 44.1307C167.697 44.4262 167.348 44.8561 167.098 45.4205C166.848 45.9811 166.723 46.6667 166.723 47.4773C166.723 48.2879 166.847 48.9773 167.093 49.5455C167.339 50.1137 167.688 50.5474 168.138 50.8467C168.589 51.1421 169.121 51.2898 169.735 51.2898C170.292 51.2898 170.767 51.1914 171.161 50.9944C171.559 50.7936 171.862 50.5114 172.07 50.1478C172.282 49.7842 172.388 49.3542 172.388 48.858L172.888 48.9319H169.888V47.0796H174.758V48.5455C174.758 49.5682 174.542 50.447 174.11 51.1819C173.678 51.9129 173.083 52.4773 172.326 52.8751C171.568 53.269 170.701 53.466 169.723 53.466C168.633 53.466 167.674 53.2254 166.848 52.7444C166.023 52.2595 165.379 51.572 164.917 50.6819C164.458 49.7879 164.229 48.7273 164.229 47.5001C164.229 46.5569 164.366 45.716 164.638 44.9773C164.915 44.2349 165.301 43.6061 165.797 43.091C166.294 42.5758 166.871 42.1838 167.53 41.9148C168.189 41.6459 168.903 41.5114 169.672 41.5114C170.331 41.5114 170.945 41.608 171.513 41.8012C172.081 41.9906 172.585 42.2595 173.025 42.608C173.468 42.9565 173.83 43.3713 174.11 43.8523C174.39 44.3296 174.57 44.8561 174.65 45.4319H172.15ZM179.066 41.6705V53.3069H176.606V41.6705H179.066Z" fill="black"/>
<path d="M29.4673 28.0256H19.334V65.4602H29.4673V28.0256Z" fill="#004280"/>
<path d="M45.544 28.0256H35.4185V65.4602H45.544V28.0256Z" fill="#00775E"/>
<path d="M61.3404 28.0354H51.2217V65.4767H61.3404V28.0354Z" fill="#DA261B"/>
<path d="M70.1606 69.1262H9.14355V76.4773H70.1606V69.1262Z" fill="#B2B2B2"/>
<path d="M72.9988 14.1633C66.8113 12.9921 61.2665 8.55551 54.7352 7.26343C38.3521 2.32699 21.1549 7.11044 9.98841 19.737C9.52392 20.1746 8.75364 19.0277 8.66113 18.5687C15.2868 6.51799 28.2071 1.0573 41.1187 0.136475C53.0856 0.994944 65.5736 3.34721 72.9988 14.1633Z" fill="#B2B2B2"/>
<path d="M72.4152 18.6358C72.2963 19.7165 72.0558 20.915 70.973 21.5094C48.2426 20.077 26.1132 24.1433 3.86682 24.7474C3.02447 24.0244 1.59691 24.9813 0.987305 23.9026L1.83255 22.9438C24.56 19.2332 47.0517 16.0029 70.973 16.9637L72.4152 18.6358Z" fill="#B2B2B2"/>
</svg>
