<?xml version="1.0" encoding="utf-8"?>
<!-- Generator: Adobe Illustrator 25.4.1, SVG Export Plug-In . SVG Version: 6.00 Build 0)  -->
<svg version="1.1" id="Layer_1" xmlns="http://www.w3.org/2000/svg" xmlns:xlink="http://www.w3.org/1999/xlink" x="0px" y="0px"
	 viewBox="0 0 336.6 135.3" style="enable-background:new 0 0 336.6 135.3;" xml:space="preserve">
<style type="text/css">
	.st0{fill:#040404;}
	.st1{fill:#73C0C5;}
</style>
<path class="st0" d="M103.3,32.3V18.1c0-0.8-0.1-1.4-0.2-1.8c-0.2-0.4-0.4-0.7-0.8-0.8c-0.4-0.2-1-0.3-1.8-0.4
	c-0.1,0-0.2-0.1-0.3-0.2c-0.1-0.1-0.2-0.2-0.2-0.3c0-0.1,0-0.1,0.1-0.2c0.1-0.1,0.1-0.1,0.2-0.1h0.6c0.4,0,1.2,0,2.3,0.1
	c1.1,0.1,1.8,0.1,2.1,0.1h0.4c-0.1,0,0.3,0,1.1,0c0.8,0,1.4,0,2,0c1,0,1.5,0,1.6,0.1v0.2c0,0.1-0.1,0.2-0.2,0.2
	c-0.2,0.1-0.3,0.1-0.4,0.1c-1,0.1-1.7,0.3-2.1,0.7c-0.4,0.4-0.6,1.1-0.6,2.1c0,0,0,0.1,0,0.1c0,0.1,0,0.1,0,0.1v12
	c0,1.1,0,2-0.1,2.8c-0.1,0.7-0.3,1.5-0.7,2.2s-0.9,1.3-1.7,1.8c-1.2,0.9-2.9,1.4-5.1,1.4c-1,0-2-0.1-2.8-0.3c-0.8-0.2-1.4-0.5-1.8-1
	c-0.4-0.5-0.7-1-0.7-1.5c0-0.7,0.3-1.1,1-1.2c0.1,0,0.1,0,0.3,0c0.1,0,0.2,0,0.3,0c0.4,0,0.7,0.1,0.9,0.4c0.2,0.3,0.4,0.7,0.7,1.2
	c0.3,0.6,0.5,0.9,0.7,1.1c0.5,0.4,1.1,0.6,1.8,0.6c0.9,0,1.7-0.2,2.4-0.7c0.6-0.4,0.9-0.9,1.1-1.6s0.3-1.5,0.3-2.4V32.3z"/>
<path class="st0" d="M115,26.1c0-2.3,0.6-4.3,1.8-6.2c1.2-1.9,2.8-3.4,4.8-4.4c2-1.1,4.1-1.6,6.3-1.6c0.1,0,0.4,0,0.7,0
	c0.3,0,0.5,0,0.7,0c1.6,0.2,3,0.6,4.4,1.2c1.4,0.7,2.6,1.5,3.6,2.6c1,1.1,1.8,2.3,2.4,3.7s0.8,2.9,0.8,4.4v0.2
	c-0.1,2.3-0.7,4.4-1.8,6.3c-1.1,1.8-2.7,3.3-4.6,4.3c-1.9,1-4.1,1.6-6.4,1.6c-2.2,0-4.3-0.5-6.3-1.5c-2-1-3.5-2.4-4.7-4.3
	c-1.2-1.8-1.7-3.9-1.7-6.1L115,26.1z M119.2,25.9c0,1.9,0.3,3.7,0.9,5.5s1.5,3.2,2.8,4.4s2.8,1.7,4.7,1.7c1.5,0,2.8-0.4,4-1.2
	c1.2-0.8,2.2-1.8,2.9-3.1c1-1.8,1.6-4.2,1.6-7.1c0-1.9-0.3-3.7-0.8-5.4c-0.5-1.7-1.4-3.1-2.7-4.3c-1.2-1.1-2.8-1.7-4.7-1.8h-0.3
	c-1.4,0-2.6,0.3-3.7,1c-1.1,0.7-1.9,1.6-2.6,2.7c-0.7,1.1-1.2,2.4-1.5,3.7S119.2,24.6,119.2,25.9z"/>
<path class="st0" d="M148.6,18.1c0-0.8-0.1-1.4-0.2-1.8c-0.2-0.4-0.4-0.7-0.8-0.8c-0.4-0.2-1-0.3-1.8-0.4c-0.1,0-0.2-0.1-0.3-0.2
	c-0.1-0.1-0.2-0.2-0.2-0.3c0-0.1,0-0.1,0.1-0.2c0.1-0.1,0.1-0.1,0.2-0.1h0.6c0.5,0,1.2,0,2.2,0.1c1,0.1,1.7,0.1,2.1,0.1h0.4
	c-0.1,0,0.3,0,1.1,0c0.8,0,1.5,0,2,0c1,0,1.5,0,1.6,0.1v0.2c0,0.1-0.1,0.2-0.2,0.2c-0.2,0.1-0.3,0.1-0.4,0.1
	c-0.7,0.1-1.3,0.2-1.7,0.4c-0.4,0.2-0.6,0.5-0.8,0.9c-0.1,0.4-0.2,1-0.2,1.7V25h12.6v-6.9c0-0.8-0.1-1.4-0.2-1.8
	c-0.2-0.4-0.4-0.7-0.8-0.8c-0.4-0.2-1-0.3-1.8-0.4c-0.1,0-0.2-0.1-0.3-0.2c-0.1-0.1-0.2-0.2-0.2-0.3c0,0,0.1-0.1,0.2-0.3h0.6
	c0.6,0,1.5,0,2.6,0.1c1.1,0.1,1.7,0.1,1.8,0.1c0,0,0.6,0,1.6-0.1c1-0.1,1.8-0.1,2.5-0.1c0.2,0,0.6,0,1,0.1c0,0.1,0,0.1,0,0.3
	c0,0.2-0.1,0.3-0.5,0.3c-0.8,0.1-1.4,0.2-1.8,0.4c-0.4,0.2-0.7,0.4-0.8,0.8c-0.2,0.4-0.2,1-0.2,1.8v15.6c0,0.8,0,1.4,0.1,1.7
	c0.1,0.4,0.3,0.7,0.5,0.8c0.2,0.2,0.5,0.3,0.9,0.4c0.4,0.1,0.9,0.2,1.6,0.3c0.1,0,0.2,0.1,0.2,0.4c0,0.2-0.1,0.2-0.2,0.2
	c0,0-0.2,0-0.3,0c-0.2,0-0.3,0-0.4,0c-0.4,0-1.2,0-2.2-0.1c-1.1-0.1-1.7-0.1-1.8-0.1c-0.2,0-0.9,0-2,0.1c-1.1,0.1-1.9,0.1-2.3,0.1
	c-0.1,0-0.1,0-0.2,0c-0.1,0-0.1,0-0.1,0c-0.1,0-0.3,0-0.4-0.1c-0.1-0.1-0.1-0.1-0.1-0.2c0-0.1,0-0.1,0.1-0.2
	c0.1-0.1,0.2-0.1,0.3-0.1c0.8-0.1,1.4-0.3,1.8-0.5c0.4-0.2,0.7-0.5,0.8-0.9c0.2-0.4,0.3-1,0.3-1.8v-7.5h-12.6v7.5
	c0,0.7,0,1.3,0.1,1.7c0.1,0.4,0.3,0.7,0.5,0.9s0.5,0.3,0.9,0.4c0.4,0.1,0.9,0.2,1.6,0.3c0.1,0,0.2,0.1,0.2,0.4
	c0,0.2-0.1,0.2-0.3,0.2c0,0-0.1,0-0.3,0c-0.2,0-0.3,0-0.4,0c-0.5,0-1.2,0-2.3-0.1c-1.1-0.1-1.7-0.1-1.9-0.1c-0.2,0-0.9,0-2,0.1
	c-1.1,0.1-1.9,0.1-2.3,0.1c0,0-0.1,0-0.2,0c-0.1,0-0.2,0-0.2,0c-0.3,0-0.5-0.1-0.5-0.2c0-0.1,0-0.2,0.1-0.3c0.1-0.1,0.2-0.1,0.3-0.1
	c0.8-0.1,1.5-0.3,1.9-0.5c0.4-0.2,0.7-0.5,0.8-0.9c0.2-0.4,0.2-1,0.2-1.9V18.1z"/>
<path class="st0" d="M182.4,33.2c0,1,0.1,1.8,0.4,2.3c0.2,0.5,0.5,0.9,0.8,1c0.3,0.2,0.7,0.3,1.1,0.3c0.4,0.1,0.7,0.2,0.9,0.3
	c0.1,0,0.1,0.1,0.1,0.3c0,0.2-0.1,0.2-0.2,0.2c-0.1,0.1-0.5,0.1-0.9,0.1c-0.3,0-0.8,0-1.4-0.1c-0.6,0-1.1-0.1-1.2-0.1
	c-0.2,0-0.6,0-1.2,0.1c-0.6,0-1,0.1-1.3,0.1c-0.1,0-0.2,0-0.4,0c-0.2,0-0.3,0-0.4,0c-0.1,0-0.2,0-0.3-0.1c-0.1-0.1-0.2-0.1-0.2-0.2
	c0,0,0.1-0.1,0.3-0.3c0.2-0.1,0.4-0.1,0.8-0.2c0.4-0.1,0.7-0.1,0.9-0.2c0.2-0.1,0.5-0.3,0.7-0.5c0.4-0.4,0.7-1.2,0.7-2.4V16.9
	c-0.7-1.1-1.6-1.7-2.6-1.8c-0.1,0-0.4,0-0.7-0.1c-0.3-0.1-0.4-0.2-0.4-0.3c0-0.1,0.1-0.3,0.4-0.4c0.1,0,0.2,0,0.4,0
	c0.2,0,0.3,0,0.4,0c0.4,0,0.9,0,1.5,0.1c0.6,0,1.1,0.1,1.3,0.1h1.3c0.7,0,1.2,0.2,1.5,0.5l14.2,17.9V18.5c0-2.4-0.9-3.5-2.8-3.5
	h-0.1c-0.1,0-0.2,0-0.3-0.1c-0.1-0.1-0.1-0.1-0.1-0.2l0.1-0.2c0-0.1,0.4-0.1,1-0.1c0.5,0,1.1,0,1.7,0.1c0.7,0,1.1,0.1,1.1,0.1
	c0.1,0,0.5,0,1.2,0c0.7,0,1.2,0,1.6,0h0.7c0.1,0.1,0.1,0.2,0.1,0.4c0,0.2-0.1,0.3-0.2,0.3c-0.2,0.1-0.5,0.2-0.9,0.2
	c-0.4,0.1-0.7,0.1-0.9,0.2c-0.2,0.1-0.4,0.2-0.6,0.5c-0.4,0.5-0.6,1.2-0.6,2.2c0,0.1,0,0.1,0,0.3c0,0.1,0,0.2,0,0.2v18.6
	c0,0.7-0.2,1-0.6,1c-0.3,0-0.7-0.3-1.2-0.8l-15.5-19.3V33.2z"/>
<path class="st0" d="M106,67.2c0,0,0,0.1,0,0.2c0,0.1,0,0.2,0,0.2c0,0.7,0.1,1.2,0.2,1.5c0.1,0.4,0.4,0.6,0.6,0.8
	c0.3,0.2,0.6,0.3,1,0.3c0.4,0.1,0.9,0.2,1.6,0.3c0.2,0,0.2,0.1,0.2,0.3s-0.1,0.3-0.2,0.3c0,0-0.1,0-0.3,0c-0.2,0-0.3,0-0.5,0
	c-0.4,0-1.1,0-2-0.1c-0.9-0.1-1.5-0.1-1.5-0.1c-0.6,0-1.4,0-2.6,0c-1.1,0-2,0.1-2.5,0.1c-0.1,0-0.2,0-0.3,0c-0.2,0-0.3,0-0.4,0
	c0,0-0.1,0-0.2,0c-0.1,0-0.1,0-0.2,0c-0.3,0-0.4-0.1-0.4-0.2c0-0.1,0.1-0.2,0.2-0.3c0.1-0.1,0.2-0.1,0.4-0.1
	c0.8-0.1,1.5-0.2,1.9-0.4c0.5-0.2,0.8-0.5,1-0.9c0.2-0.4,0.3-1.1,0.3-1.9V49.8c0-0.7-0.6-1.1-1.8-1.1h-2.7c-1.8,0-3.1,0.2-3.8,0.6
	c-0.4,0.2-0.7,0.5-0.9,0.9c-0.2,0.4-0.3,0.9-0.5,1.6c-0.1,0.7-0.2,1-0.2,1.1c0,0,0,0.1-0.1,0.1c-0.1,0-0.1,0.1-0.2,0.1
	c-0.2,0-0.3-0.2-0.3-0.6v-3.9c0-0.5,0.3-0.8,1-0.8c0.7,0,1.2,0,1.5,0.1c2.1,0.1,5.3,0.1,9.6,0.1c4.3,0,7.5,0,9.7-0.1
	c0.4-0.1,0.9-0.1,1.6-0.1c0.7,0,1,0.3,1,0.8v3.9c0,0.2-0.1,0.3-0.2,0.4c-0.1,0.1-0.2,0.2-0.3,0.2c-0.1,0-0.2-0.1-0.2-0.4
	c-0.1-0.9-0.3-1.6-0.5-2.1c-0.2-0.5-0.5-0.9-1.1-1.2c-0.8-0.4-2.2-0.7-4.3-0.7c-0.3,0-0.8,0-1.3,0c-0.6,0-1,0-1.2,0
	c-0.5,0-0.8,0.1-1.1,0.2c-0.2,0.2-0.4,0.4-0.4,0.9V67.2z"/>
<path class="st0" d="M128.6,65.2c0,0,0,0.1,0,0.2c0,0.1,0,0.1,0,0.2c0,1.4,0.2,2.4,0.5,3.2c0.3,0.7,1.1,1.2,2.3,1.4
	c1.1,0.2,2,0.3,2.7,0.3c1,0,2-0.1,3-0.4c0.9-0.3,1.6-0.7,2.1-1.3c0.3-0.4,0.6-1,0.9-1.8c0.2-0.8,0.4-1.1,0.6-1.1h0.1
	c0.2,0.1,0.3,0.6,0.3,1.6c0,0.5,0,1.1-0.1,1.9s-0.1,1.2-0.1,1.2c0,0.3-0.1,0.5-0.2,0.5c-0.1,0.1-0.3,0.1-0.6,0.2
	c-0.7,0-1.1,0-1.4-0.1c-0.8,0-2.1,0-3.8-0.1c-1.7,0-3,0-3.8,0c-3,0-5.3,0-6.9,0.1c-0.2,0-0.4,0-0.9,0.1s-0.7,0.1-0.9,0.1
	c-0.1,0-0.2,0-0.3,0c-0.1,0-0.2,0-0.2,0c-0.1,0-0.2-0.1-0.2-0.2c0-0.2,0.1-0.3,0.2-0.4c0.2-0.1,0.5-0.1,0.9-0.2c0.5,0,0.8-0.1,1-0.2
	c0.5-0.2,0.9-0.6,1-1c0.1-0.5,0.2-1.1,0.2-1.9V51.6c0-0.8-0.1-1.4-0.3-1.9c-0.2-0.5-0.6-0.8-1.2-0.9c-0.1,0-0.4,0-0.8-0.1
	c-0.5,0-0.8-0.1-1-0.2c-0.1-0.1-0.2-0.2-0.2-0.3c0-0.1,0-0.2,0.1-0.2c0.1-0.1,0.1-0.1,0.2-0.1h0.7c0.4,0,0.9,0,1.5,0.1
	c0.6,0.1,1,0.1,1.1,0.1c0.2,0,0.5,0,0.9,0c0.4,0,0.7,0,0.9,0c0.9,0,2.1,0,3.8-0.1c1.7-0.1,3-0.1,4-0.1h1.8c0.9,0,1.5,0.1,1.9,0.2
	c0.3,0,0.5,0.2,0.5,0.6c0,0.2,0,0.6-0.1,1c0,0.4-0.1,0.7-0.1,1c0,0.1,0,0.4,0.1,0.8c0,0.4,0.1,0.8,0.1,1v0.3
	c-0.2,0.2-0.3,0.3-0.3,0.3c0,0-0.1,0-0.1-0.1c0,0-0.1-0.1-0.1-0.1c-0.1,0-0.2-0.4-0.4-1.1c-0.2-0.7-0.4-1.2-0.7-1.6
	c-0.9-1-2.6-1.6-5-1.6c-0.8,0-1.7,0.1-2.7,0.2c-0.6,0-1,0.1-1.1,0.4c-0.2,0.2-0.2,0.7-0.2,1.4v8c1.3-0.1,2.2-0.2,2.8-0.3
	s1.2-0.4,1.7-0.8c0.4-0.4,0.7-0.7,0.8-1c0.1-0.3,0.2-0.7,0.3-1.1c0.1-0.5,0.2-0.8,0.3-1.1c0.1-0.1,0.2-0.2,0.3-0.2
	c0.1,0,0.2,0,0.3,0.1c0.1,0.1,0.1,0.2,0.1,0.3v0.7c0,0.3,0,0.9-0.1,1.6c0,0.8-0.1,1.3-0.1,1.7v0.3c0,0.1,0,0.7,0.1,1.7
	c0,1,0.1,1.7,0.1,2.1v0.7c0,0,0,0.1-0.1,0.1c-0.1,0.1-0.2,0.1-0.2,0.1c-0.1,0-0.2-0.1-0.3-0.3c-0.1-0.2-0.2-0.5-0.3-1
	c-0.1-0.4-0.3-0.8-0.4-1.1c-0.1-0.3-0.3-0.6-0.5-0.8c-0.8-0.6-2.1-0.9-3.7-0.9h-0.9V65.2z"/>
<path class="st0" d="M150,66.6V50c-0.3-0.7-1.2-1.2-2.5-1.4c-0.2,0-0.5-0.1-0.7-0.2c-0.2-0.1-0.3-0.2-0.3-0.3c0,0,0-0.1,0.1-0.2
	c0.1-0.1,0.2-0.1,0.3-0.1h5.6c0.4,0,0.8,0.1,1,0.2c0.2,0.1,0.4,0.3,0.5,0.7l7.3,17l7.4-17.3c0.2-0.4,0.5-0.6,0.9-0.6
	c0.3,0,0.8,0,1.5,0c0.7,0,1.2,0,1.5,0c0,0,0.2,0,0.7,0c0.4,0,0.8,0,1.1,0c0.9,0,1.4,0.1,1.4,0.4c0,0.1-0.4,0.3-1.2,0.4
	c-0.8,0.2-1.3,0.4-1.6,0.6c-0.5,0.6-0.8,1.5-0.8,2.9v15c0,1.1,0.1,1.9,0.3,2.2c0.2,0.4,0.7,0.6,1.3,0.8c0.7,0.1,1.1,0.2,1.3,0.3
	c0.1,0.1,0.2,0.2,0.2,0.3c0,0.1,0,0.1-0.1,0.2c-0.1,0.1-0.2,0.1-0.3,0.1c0,0-0.1,0-0.2,0c-0.1,0-0.2,0-0.3,0c-0.4,0-1.1,0-2.1-0.1
	c-1-0.1-1.6-0.1-1.9-0.1c-0.1,0-0.7,0-1.9,0.1c-1.1,0.1-1.9,0.1-2.4,0.1c-0.1,0-0.2,0-0.4,0c-0.2,0-0.2,0-0.2,0
	c-0.2,0-0.4-0.1-0.4-0.2c0-0.1,0.1-0.2,0.2-0.3c0.1-0.1,0.2-0.2,0.3-0.2c1.2-0.2,2-0.5,2.4-0.9c0.4-0.4,0.6-1.2,0.6-2.4v-16
	l-8.3,19.3c0,0.1-0.1,0.2-0.2,0.4c-0.1,0.1-0.2,0.2-0.3,0.2c-0.1,0-0.2-0.1-0.4-0.4L151.1,51v15.7c0,0.7,0,1.3,0.1,1.8
	c0.1,0.5,0.3,0.9,0.7,1.2c0.3,0.2,0.5,0.4,0.8,0.5c0.2,0.1,0.5,0.1,0.8,0.2c0.3,0,0.6,0.1,0.7,0.2c0.1,0.2,0.1,0.3,0.1,0.3
	c0,0,0,0.1-0.1,0.3c-0.3,0.1-0.6,0.1-0.9,0.1c-0.3,0-0.7,0-1.2-0.1c-0.5,0-0.8-0.1-0.9-0.1c-0.3,0-0.7,0-1.4,0.1s-1.2,0.1-1.5,0.1
	c-0.2,0-0.6,0-1.3-0.1c-0.1,0-0.2,0-0.2-0.1c-0.1-0.1-0.1-0.1-0.1-0.1c0,0,0-0.1,0.1-0.2c0.1-0.1,0.2-0.2,0.2-0.2
	c0.2-0.1,0.5-0.1,0.8-0.2c0.4-0.1,0.7-0.2,0.9-0.3c0.2-0.1,0.5-0.3,0.7-0.6c0.4-0.4,0.5-1.2,0.5-2.3V66.6z"/>
<path class="st0" d="M188.3,60.2v7c0,0.7,0,1.3,0.1,1.7c0.1,0.4,0.3,0.7,0.5,0.9c0.2,0.2,0.5,0.3,0.9,0.4c0.4,0.1,0.9,0.2,1.6,0.3
	c0.1,0,0.2,0.1,0.2,0.4c0,0.2-0.1,0.2-0.2,0.2c0,0-0.2,0-0.4,0c-0.2,0-0.3,0-0.4,0c-0.4,0-1.2,0-2.2-0.1c-1.1-0.1-1.7-0.1-1.9-0.1
	c-0.2,0-0.9,0-2,0.1c-1.1,0.1-1.9,0.1-2.3,0.1c0,0-0.1,0-0.2,0c-0.1,0-0.2,0-0.2,0c-0.3,0-0.5-0.1-0.5-0.2c0-0.1,0-0.2,0.1-0.3
	c0.1-0.1,0.2-0.1,0.3-0.1c1.2-0.2,2-0.4,2.4-0.9c0.4-0.4,0.6-1.2,0.6-2.4V51.6c0-1-0.2-1.8-0.5-2.2c-0.3-0.4-1-0.7-2-0.8
	c-0.2,0-0.4,0-0.6-0.1c-0.3-0.1-0.4-0.2-0.4-0.3l0.2-0.2c0.2-0.1,0.6-0.2,1.2-0.2c0.4,0,0.8,0,1.2,0c0.4,0,0.6,0,0.5,0
	c0.1,0,0.3,0,0.6,0c0.3,0,0.5,0,0.6,0c0.5,0,1.3,0,2.4,0c1.1,0,1.9,0,2.4,0c1.2,0,2.5,0.1,3.7,0.2c1,0.2,2,0.6,2.9,1.1
	c0.9,0.5,1.6,1.2,2.1,2c0.5,0.8,0.8,1.8,0.8,2.8c0,2.3-0.9,3.9-2.8,4.9c-1.9,1-4.1,1.4-6.7,1.4c-0.2,0-0.6,0-1-0.1
	C188.9,60.2,188.6,60.2,188.3,60.2z M188.3,59.3c0.2,0,0.6,0.1,1.1,0.1c0.5,0.1,0.9,0.1,1.2,0.1c0.3,0,1-0.1,2-0.3
	c1.1-0.2,1.9-0.8,2.4-1.8c0.5-1,0.7-2.1,0.7-3.4v-1.2c-0.4-2.9-2.2-4.3-5.4-4.3c-0.6,0-1.1,0.1-1.4,0.2c-0.4,0.1-0.5,0.5-0.5,1V59.3
	z"/>
<path class="st0" d="M210.7,66c0,0.1,0,0.2,0,0.4c0,0.2,0,0.3,0,0.3c0,0.6,0.1,1.2,0.4,1.8c0.3,0.6,0.7,1,1.2,1.2
	c1.1,0.4,2.3,0.6,3.7,0.6c1.2,0,2.4-0.1,3.4-0.4c1.5-0.4,2.5-1.1,3.1-2.2c0.1-0.2,0.3-0.7,0.4-1.2c0.1-0.6,0.2-1,0.4-1.2
	c0.1-0.1,0.2-0.2,0.3-0.2c0.2,0,0.3,0.2,0.3,0.7l0,4.6c0,0.6-0.2,0.9-0.6,0.9h-0.6c-0.4,0-1,0-1.8-0.1c-0.8-0.1-1.4-0.1-1.8-0.1
	c-0.9,0-2.3,0-4.1,0c-1.8,0-3.2,0-4.1,0h-3.3c-0.3,0-0.7,0-1.3,0.1c-0.6,0.1-1,0.1-1.3,0.1c-0.1,0-0.2,0-0.4,0c-0.2,0-0.3,0-0.4,0
	c-0.3,0-0.5-0.1-0.5-0.2c0-0.1,0.1-0.2,0.2-0.4c0.1,0,0.4-0.1,0.9-0.2c0.5-0.1,0.8-0.1,0.9-0.1c0.6-0.2,0.9-0.5,1.1-1
	c0.2-0.5,0.3-1.2,0.3-2V51.2c0-1-0.2-1.7-0.6-2c-0.4-0.3-1.1-0.6-2.2-0.7c-0.1,0-0.3-0.1-0.4-0.2c-0.1-0.1-0.2-0.2-0.2-0.3
	c0-0.1,0-0.1,0.1-0.2c0.1-0.1,0.1-0.1,0.2-0.1h0.5c0.5,0,1.2,0,2.3,0.1s1.8,0.1,2.2,0.1h0.4c-0.1,0,0.3,0,1.1,0c0.8,0,1.5,0,2,0
	c1,0,1.5,0,1.6,0.1v0.2c0,0.2-0.2,0.3-0.6,0.3c-1,0.1-1.7,0.3-2.1,0.7c-0.4,0.4-0.6,1.1-0.6,2.1c0,0,0,0,0,0.1c0,0.1,0,0.1,0,0.1V66
	z"/>
<path class="st0" d="M236.3,65.2c0,0,0,0.1,0,0.2c0,0.1,0,0.1,0,0.2c0,1.4,0.2,2.4,0.5,3.2c0.3,0.7,1.1,1.2,2.3,1.4
	c1.1,0.2,2,0.3,2.7,0.3c1,0,2-0.1,3-0.4c0.9-0.3,1.6-0.7,2.1-1.3c0.3-0.4,0.6-1,0.9-1.8c0.2-0.8,0.4-1.1,0.6-1.1h0.1
	c0.2,0.1,0.3,0.6,0.3,1.6c0,0.5,0,1.1-0.1,1.9c-0.1,0.8-0.1,1.2-0.1,1.2c0,0.3-0.1,0.5-0.2,0.5c-0.1,0.1-0.3,0.1-0.6,0.2
	c-0.7,0-1.1,0-1.4-0.1c-0.8,0-2.1,0-3.8-0.1c-1.7,0-3,0-3.8,0c-3,0-5.3,0-6.9,0.1c-0.2,0-0.4,0-0.9,0.1s-0.7,0.1-0.9,0.1
	c-0.1,0-0.2,0-0.3,0c-0.1,0-0.2,0-0.2,0c-0.1,0-0.2-0.1-0.2-0.2c0-0.2,0.1-0.3,0.2-0.4c0.2-0.1,0.5-0.1,0.9-0.2c0.5,0,0.8-0.1,1-0.2
	c0.5-0.2,0.9-0.6,1-1c0.1-0.5,0.2-1.1,0.2-1.9V51.6c0-0.8-0.1-1.4-0.3-1.9c-0.2-0.5-0.6-0.8-1.2-0.9c-0.1,0-0.4,0-0.8-0.1
	c-0.5,0-0.8-0.1-1-0.2c-0.1-0.1-0.2-0.2-0.2-0.3c0-0.1,0-0.2,0.1-0.2c0.1-0.1,0.1-0.1,0.2-0.1h0.7c0.4,0,0.9,0,1.5,0.1
	c0.6,0.1,1,0.1,1.1,0.1c0.2,0,0.5,0,0.9,0c0.4,0,0.7,0,0.9,0c0.9,0,2.1,0,3.8-0.1c1.7-0.1,3-0.1,4-0.1h1.8c0.9,0,1.5,0.1,1.9,0.2
	c0.3,0,0.5,0.2,0.5,0.6c0,0.2,0,0.6-0.1,1c0,0.4-0.1,0.7-0.1,1c0,0.1,0,0.4,0.1,0.8c0,0.4,0.1,0.8,0.1,1v0.3
	c-0.2,0.2-0.3,0.3-0.3,0.3c0,0-0.1,0-0.1-0.1c0,0-0.1-0.1-0.1-0.1c-0.1,0-0.2-0.4-0.4-1.1c-0.2-0.7-0.4-1.2-0.7-1.6
	c-0.9-1-2.6-1.6-5-1.6c-0.8,0-1.7,0.1-2.7,0.2c-0.6,0-1,0.1-1.1,0.4c-0.2,0.2-0.2,0.7-0.2,1.4v8c1.3-0.1,2.2-0.2,2.8-0.3
	c0.6-0.1,1.2-0.4,1.7-0.8c0.4-0.4,0.7-0.7,0.8-1s0.2-0.7,0.3-1.1c0.1-0.5,0.2-0.8,0.3-1.1c0.1-0.1,0.2-0.2,0.3-0.2
	c0.1,0,0.2,0,0.3,0.1c0.1,0.1,0.1,0.2,0.1,0.3v0.7c0,0.3,0,0.9-0.1,1.6c0,0.8-0.1,1.3-0.1,1.7v0.3c0,0.1,0,0.7,0.1,1.7
	c0,1,0.1,1.7,0.1,2.1v0.7c0,0,0,0.1-0.1,0.1c-0.1,0.1-0.2,0.1-0.2,0.1c-0.1,0-0.2-0.1-0.3-0.3c-0.1-0.2-0.2-0.5-0.3-1
	c-0.1-0.4-0.3-0.8-0.4-1.1c-0.1-0.3-0.3-0.6-0.5-0.8c-0.8-0.6-2.1-0.9-3.7-0.9h-0.9V65.2z"/>
<path class="st0" d="M266.9,67.2c0,0,0,0.1,0,0.2c0,0.1,0,0.2,0,0.2c0,0.7,0.1,1.2,0.2,1.5c0.1,0.4,0.4,0.6,0.6,0.8
	c0.3,0.2,0.6,0.3,1,0.3c0.4,0.1,0.9,0.2,1.6,0.3c0.2,0,0.2,0.1,0.2,0.3s-0.1,0.3-0.2,0.3c0,0-0.1,0-0.3,0c-0.2,0-0.3,0-0.5,0
	c-0.4,0-1.1,0-2-0.1c-0.9-0.1-1.5-0.1-1.5-0.1c-0.6,0-1.4,0-2.6,0c-1.1,0-2,0.1-2.5,0.1c-0.1,0-0.2,0-0.3,0c-0.2,0-0.3,0-0.4,0
	c0,0-0.1,0-0.2,0c-0.1,0-0.1,0-0.2,0c-0.3,0-0.4-0.1-0.4-0.2c0-0.1,0.1-0.2,0.2-0.3c0.1-0.1,0.2-0.1,0.4-0.1
	c0.8-0.1,1.5-0.2,1.9-0.4c0.5-0.2,0.8-0.5,1-0.9c0.2-0.4,0.3-1.1,0.3-1.9V49.8c0-0.7-0.6-1.1-1.8-1.1h-2.7c-1.8,0-3.1,0.2-3.8,0.6
	c-0.4,0.2-0.7,0.5-0.9,0.9c-0.2,0.4-0.3,0.9-0.5,1.6c-0.1,0.7-0.2,1-0.2,1.1c0,0,0,0.1-0.1,0.1c-0.1,0-0.1,0.1-0.2,0.1
	c-0.2,0-0.3-0.2-0.3-0.6v-3.9c0-0.5,0.3-0.8,1-0.8c0.7,0,1.2,0,1.5,0.1c2.1,0.1,5.3,0.1,9.6,0.1c4.3,0,7.5,0,9.7-0.1
	c0.4-0.1,0.9-0.1,1.6-0.1c0.7,0,1,0.3,1,0.8v3.9c0,0.2-0.1,0.3-0.2,0.4c-0.1,0.1-0.2,0.2-0.3,0.2c-0.1,0-0.2-0.1-0.2-0.4
	c-0.1-0.9-0.3-1.6-0.5-2.1c-0.2-0.5-0.5-0.9-1.1-1.2c-0.8-0.4-2.2-0.7-4.3-0.7c-0.3,0-0.8,0-1.3,0c-0.6,0-1,0-1.2,0
	c-0.5,0-0.8,0.1-1.1,0.2c-0.2,0.2-0.4,0.4-0.4,0.9V67.2z"/>
<path class="st0" d="M281.5,59.6c0-2.3,0.6-4.3,1.8-6.2c1.2-1.9,2.8-3.4,4.8-4.4c2-1.1,4.1-1.6,6.3-1.6c0.1,0,0.4,0,0.7,0
	c0.3,0,0.5,0,0.7,0c1.6,0.2,3,0.6,4.4,1.2c1.4,0.7,2.6,1.5,3.6,2.6c1,1.1,1.8,2.3,2.4,3.7c0.6,1.4,0.8,2.9,0.8,4.4v0.2
	c-0.1,2.3-0.7,4.4-1.8,6.3c-1.1,1.8-2.7,3.3-4.6,4.3c-1.9,1-4.1,1.6-6.4,1.6c-2.2,0-4.3-0.5-6.3-1.5c-2-1-3.5-2.4-4.7-4.3
	c-1.2-1.8-1.7-3.9-1.7-6.1L281.5,59.6z M285.7,59.4c0,1.9,0.3,3.7,0.9,5.5c0.6,1.8,1.5,3.2,2.8,4.4c1.3,1.1,2.8,1.7,4.7,1.7
	c1.5,0,2.8-0.4,4-1.2c1.2-0.8,2.2-1.8,2.9-3.1c1-1.8,1.6-4.2,1.6-7.1c0-1.9-0.3-3.7-0.8-5.4c-0.5-1.7-1.4-3.1-2.7-4.3
	c-1.2-1.1-2.8-1.7-4.7-1.8h-0.3c-1.4,0-2.6,0.3-3.7,1c-1.1,0.7-1.9,1.6-2.6,2.7c-0.7,1.1-1.2,2.4-1.5,3.7S285.7,58.1,285.7,59.4z"/>
<path class="st0" d="M316.2,66.6c0,1,0.1,1.8,0.4,2.3s0.5,0.9,0.8,1c0.3,0.2,0.7,0.3,1.1,0.3c0.4,0.1,0.7,0.2,0.9,0.3
	c0.1,0,0.1,0.1,0.1,0.3c0,0.2-0.1,0.2-0.2,0.2c-0.1,0.1-0.5,0.1-0.9,0.1c-0.3,0-0.8,0-1.4-0.1c-0.6,0-1.1-0.1-1.2-0.1
	c-0.2,0-0.6,0-1.2,0.1c-0.6,0-1,0.1-1.3,0.1c-0.1,0-0.2,0-0.4,0c-0.2,0-0.3,0-0.4,0c-0.1,0-0.2,0-0.3-0.1c-0.1-0.1-0.2-0.1-0.2-0.2
	c0,0,0.1-0.1,0.3-0.3c0.2-0.1,0.4-0.1,0.8-0.2c0.4-0.1,0.7-0.1,0.9-0.2c0.2-0.1,0.5-0.3,0.7-0.5c0.4-0.4,0.7-1.2,0.7-2.4V50.4
	c-0.7-1.1-1.6-1.7-2.6-1.8c-0.1,0-0.4,0-0.7-0.1c-0.3-0.1-0.4-0.2-0.4-0.3c0-0.1,0.1-0.3,0.4-0.4c0.1,0,0.2,0,0.4,0
	c0.2,0,0.3,0,0.4,0c0.4,0,0.9,0,1.5,0.1c0.6,0,1.1,0.1,1.3,0.1h1.3c0.7,0,1.2,0.2,1.5,0.5l14.2,17.9V52c0-2.4-0.9-3.5-2.8-3.5h-0.1
	c-0.1,0-0.2,0-0.3-0.1c-0.1-0.1-0.1-0.1-0.1-0.2l0.1-0.2c0-0.1,0.4-0.1,1-0.1c0.5,0,1.1,0,1.7,0.1c0.7,0,1.1,0.1,1.1,0.1
	c0.1,0,0.5,0,1.2,0c0.7,0,1.2,0,1.6,0h0.7c0.1,0.1,0.1,0.2,0.1,0.4c0,0.2-0.1,0.3-0.2,0.3c-0.2,0.1-0.5,0.2-0.9,0.2
	c-0.4,0.1-0.7,0.1-0.9,0.2c-0.2,0.1-0.4,0.2-0.6,0.5c-0.4,0.5-0.6,1.2-0.6,2.2c0,0.1,0,0.1,0,0.3c0,0.1,0,0.2,0,0.2v18.6
	c0,0.7-0.2,1-0.6,1c-0.3,0-0.7-0.3-1.2-0.8l-15.5-19.3V66.6z"/>
<g>
	<g>
		<path class="st1" d="M28.3,63.6c-0.2,0-0.4-0.2-0.4-0.4V0.4c0-0.2,0.2-0.4,0.4-0.4c0.2,0,0.4,0.2,0.4,0.4v62.7
			C28.8,63.4,28.6,63.6,28.3,63.6z"/>
	</g>
	<g>
		<path class="st1" d="M28.3,63.4c-0.1,0-0.1,0-0.2,0C28,63.2,27.9,63,28,62.8L55.5,8c0.1-0.2,0.3-0.3,0.5-0.2
			c0.2,0.1,0.3,0.3,0.2,0.5L28.7,63.2C28.6,63.3,28.5,63.4,28.3,63.4z"/>
	</g>
	<g>
		<path class="st1" d="M28.3,63.4c-0.1,0-0.2-0.1-0.3-0.2c-0.1-0.2-0.1-0.4,0.1-0.5l49.1-36.6c0.2-0.1,0.4-0.1,0.6,0.1
			c0.1,0.2,0.1,0.4-0.1,0.5L28.6,63.3C28.5,63.4,28.4,63.4,28.3,63.4z"/>
	</g>
	<g>
		<path class="st1" d="M28.3,63.4c-0.2,0-0.4-0.1-0.4-0.3c0-0.2,0.1-0.4,0.3-0.5l55.1-9.7c0.2,0,0.4,0.1,0.5,0.3
			c0,0.2-0.1,0.4-0.3,0.5L28.3,63.4C28.4,63.4,28.4,63.4,28.3,63.4z"/>
	</g>
	<g>
		<path class="st1" d="M79.1,78.6c0,0-0.1,0-0.1,0L28.2,63.4c-0.2-0.1-0.4-0.3-0.3-0.5c0.1-0.2,0.3-0.4,0.5-0.3l50.8,15.2
			c0.2,0.1,0.4,0.3,0.3,0.5C79.5,78.5,79.3,78.6,79.1,78.6z"/>
	</g>
	<g>
		<path class="st1" d="M62.7,95.8c-0.1,0-0.2,0-0.3-0.1L28,63.3c-0.2-0.2-0.2-0.4,0-0.6c0.2-0.2,0.4-0.2,0.6,0L63,95
			c0.2,0.2,0.2,0.4,0,0.6C62.9,95.7,62.8,95.8,62.7,95.8z"/>
	</g>
	<g>
		<g>
			<path class="st1" d="M42.9,103.3c-0.2,0-0.3-0.1-0.4-0.3L27.9,63.1c-0.1-0.2,0-0.5,0.3-0.6c0.2-0.1,0.5,0,0.6,0.3l14.6,39.9
				c0.1,0.2,0,0.5-0.3,0.6C43,103.3,42.9,103.3,42.9,103.3z"/>
		</g>
	</g>
	<g>
		<g>
			<path class="st1" d="M24,101C24,101,23.9,101,24,101c-0.3,0-0.5-0.2-0.4-0.5l4.4-37.6c0-0.2,0.2-0.4,0.5-0.4
				c0.2,0,0.4,0.2,0.4,0.5l-4.4,37.6C24.4,100.8,24.2,101,24,101z"/>
		</g>
	</g>
	<g>
		<path class="st1" d="M9.7,91.8c-0.1,0-0.2,0-0.2-0.1c-0.2-0.1-0.3-0.4-0.1-0.6L28,62.8c0.1-0.2,0.4-0.3,0.6-0.1
			c0.2,0.1,0.3,0.4,0.1,0.6L10.1,91.6C10,91.7,9.9,91.8,9.7,91.8z"/>
	</g>
	<g>
		<path class="st1" d="M2.1,78.6c-0.1,0-0.3-0.1-0.4-0.2c-0.1-0.2,0-0.5,0.2-0.6l26.2-15.2c0.2-0.1,0.5-0.1,0.6,0.2
			c0.1,0.2,0,0.5-0.2,0.6L2.3,78.5C2.3,78.6,2.2,78.6,2.1,78.6z"/>
	</g>
	<g>
		<path class="st1" d="M0.4,65.1c-0.2,0-0.4-0.2-0.4-0.4c0-0.2,0.2-0.4,0.4-0.5l27.9-1.7c0.3,0,0.4,0.2,0.5,0.4
			c0,0.2-0.2,0.4-0.4,0.5L0.4,65.1C0.4,65.1,0.4,65.1,0.4,65.1z"/>
	</g>
	<g>
		<path class="st1" d="M28.3,63.4c-0.1,0-0.1,0-0.2,0L5.5,53.7c-0.2-0.1-0.3-0.3-0.2-0.6c0.1-0.2,0.3-0.3,0.6-0.2l22.6,9.7
			c0.2,0.1,0.3,0.3,0.2,0.6C28.7,63.3,28.5,63.4,28.3,63.4z"/>
	</g>
	<g>
		<path class="st1" d="M28.3,63.4c-0.1,0-0.2-0.1-0.3-0.2L13.9,46.5c-0.2-0.2-0.1-0.5,0.1-0.6c0.2-0.2,0.5-0.1,0.6,0.1l14.1,16.8
			c0.2,0.2,0.1,0.5-0.1,0.6C28.5,63.4,28.4,63.4,28.3,63.4z"/>
	</g>
	<g>
		<path class="st1" d="M28.3,63.4c-0.2,0-0.4-0.1-0.4-0.3L23.4,44c-0.1-0.2,0.1-0.5,0.3-0.5c0.2-0.1,0.5,0.1,0.5,0.3l4.5,19.1
			C28.8,63.1,28.7,63.4,28.3,63.4C28.4,63.4,28.4,63.4,28.3,63.4z"/>
	</g>
	<g>
		<path class="st1" d="M28.3,63.6C28.3,63.6,28.3,63.6,28.3,63.6c-0.3-0.1-0.5-0.3-0.4-0.5L32,45.6c0.1-0.2,0.3-0.4,0.5-0.3
			c0.2,0.1,0.4,0.3,0.3,0.5l-4.1,17.4C28.7,63.4,28.5,63.6,28.3,63.6z"/>
	</g>
	<g>
		<path class="st1" d="M28.3,63.4c-0.1,0-0.2,0-0.3-0.1c-0.2-0.2-0.2-0.4-0.1-0.6l10.2-12.1c0.2-0.2,0.4-0.2,0.6-0.1
			c0.2,0.2,0.2,0.4,0.1,0.6L28.7,63.3C28.6,63.4,28.5,63.4,28.3,63.4z"/>
	</g>
	<g>
		<path class="st1" d="M28.3,63.4c-0.2,0-0.3-0.1-0.4-0.3c-0.1-0.2,0-0.5,0.2-0.6L41,57.1c0.2-0.1,0.5,0,0.6,0.2
			c0.1,0.2,0,0.5-0.2,0.6l-12.8,5.5C28.4,63.4,28.4,63.4,28.3,63.4z"/>
	</g>
	<g>
		<path class="st1" d="M40.9,64.1C40.9,64.1,40.9,64.1,40.9,64.1l-12.6-0.7c-0.2,0-0.4-0.2-0.4-0.5c0-0.2,0.2-0.4,0.5-0.4l12.5,0.7
			c0.2,0,0.4,0.2,0.4,0.5C41.3,64,41.1,64.1,40.9,64.1z"/>
	</g>
	<g>
		<path class="st1" d="M38,69c-0.1,0-0.1,0-0.2-0.1l-9.7-5.6c-0.2-0.1-0.3-0.4-0.2-0.6c0.1-0.2,0.4-0.3,0.6-0.2l9.7,5.6
			c0.2,0.1,0.3,0.4,0.2,0.6C38.3,68.9,38.2,69,38,69z"/>
	</g>
	<g>
		<g>
			<path class="st1" d="M33.6,71.4c-0.1,0-0.3-0.1-0.4-0.2l-5.3-8c-0.1-0.2-0.1-0.5,0.1-0.6c0.2-0.1,0.5-0.1,0.6,0.1l5.3,8
				c0.1,0.2,0.1,0.5-0.1,0.6C33.8,71.4,33.7,71.4,33.6,71.4z"/>
		</g>
	</g>
	<g>
		<path class="st1" d="M29.4,72.1c-0.2,0-0.4-0.2-0.4-0.4l-1-8.7c0-0.2,0.1-0.4,0.4-0.5c0.2,0,0.4,0.1,0.5,0.4l1,8.7
			C29.8,71.8,29.6,72.1,29.4,72.1C29.4,72.1,29.4,72.1,29.4,72.1z"/>
	</g>
	<g>
		<path class="st1" d="M25.7,70.6c0,0-0.1,0-0.1,0c-0.2-0.1-0.3-0.3-0.3-0.6l2.6-7.2c0.1-0.2,0.3-0.3,0.6-0.3
			c0.2,0.1,0.3,0.3,0.3,0.6l-2.6,7.2C26.1,70.5,25.9,70.6,25.7,70.6z"/>
	</g>
	<g>
		<path class="st1" d="M23.4,68.1c-0.1,0-0.2,0-0.3-0.1c-0.2-0.2-0.2-0.4,0-0.6l4.9-4.6c0.2-0.2,0.4-0.2,0.6,0
			c0.2,0.2,0.2,0.4,0,0.6l-4.9,4.6C23.6,68,23.5,68.1,23.4,68.1z"/>
	</g>
	<g>
		<path class="st1" d="M22.4,65.2c-0.2,0-0.4-0.1-0.4-0.3c-0.1-0.2,0.1-0.5,0.3-0.5l5.9-1.8c0.2-0.1,0.5,0.1,0.5,0.3
			c0.1,0.2-0.1,0.5-0.3,0.5l-5.9,1.8C22.5,65.2,22.5,65.2,22.4,65.2z"/>
	</g>
	<g>
		<path class="st1" d="M28.3,63.4C28.3,63.4,28.3,63.4,28.3,63.4l-5.7-1c-0.2,0-0.4-0.3-0.3-0.5c0-0.2,0.3-0.4,0.5-0.3l5.6,1
			c0.2,0,0.4,0.3,0.3,0.5C28.7,63.3,28.5,63.4,28.3,63.4z"/>
	</g>
	<g>
		<path class="st1" d="M28.3,63.4c-0.1,0-0.2,0-0.3-0.1l-4.4-3.2c-0.2-0.1-0.2-0.4-0.1-0.6c0.1-0.2,0.4-0.2,0.6-0.1l4.4,3.2
			c0.2,0.1,0.2,0.4,0.1,0.6C28.6,63.4,28.5,63.4,28.3,63.4z"/>
	</g>
	<g>
		<path class="st1" d="M28.3,63.4c-0.2,0-0.3-0.1-0.4-0.2l-2.2-4.3c-0.1-0.2,0-0.5,0.2-0.6c0.2-0.1,0.5,0,0.6,0.2l2.2,4.3
			c0.1,0.2,0,0.5-0.2,0.6C28.5,63.4,28.4,63.4,28.3,63.4z"/>
	</g>
</g>
<g>
	<path class="st0" d="M98.7,82.9h8.5v0.6h-7.8v5.8h7.7V90h-7.7v6.8h-0.7V82.9z"/>
	<path class="st0" d="M123.1,82.7c4,0,6.6,3.2,6.6,7.2c0,4-2.6,7.2-6.6,7.2c-4,0-6.6-3.2-6.6-7.2C116.6,85.8,119.1,82.7,123.1,82.7z
		 M123.1,83.3c-3.6,0-5.9,2.7-5.9,6.6c0,3.8,2.3,6.6,5.9,6.6c3.6,0,5.9-2.8,5.9-6.6C129,86.1,126.7,83.3,123.1,83.3z"/>
	<path class="st0" d="M140.2,82.9h0.7v8.6c0,3.1,1.6,4.9,4.5,4.9c2.9,0,4.5-1.8,4.5-4.9v-8.6h0.7v8.6c0,3.4-1.8,5.5-5.2,5.5
		s-5.2-2.1-5.2-5.5V82.9z"/>
	<path class="st0" d="M162.1,84v12.8h-0.7V82.9h0.7l9.4,12.7V82.9h0.7v13.9h-0.7L162.1,84z"/>
	<path class="st0" d="M183.1,82.9h4.1c4.3,0,6.9,3.2,6.9,6.9c0,3.7-2.6,6.9-6.9,6.9h-4.1V82.9z M187.2,96.2c3.9,0,6.2-2.8,6.2-6.3
		c0-3.5-2.2-6.3-6.2-6.3h-3.5v12.6H187.2z"/>
	<path class="st0" d="M212.4,93.1h-7.7l-1.5,3.7h-0.8l5.8-13.9h0.8l5.8,13.9H214L212.4,93.1z M204.9,92.4h7.2l-3.6-8.8L204.9,92.4z"
		/>
	<path class="st0" d="M226.5,83.5h-4.7v-0.6h10v0.6h-4.7v13.2h-0.7V83.5z"/>
	<path class="st0" d="M241.7,82.9h0.7v13.9h-0.7V82.9z"/>
	<path class="st0" d="M259.4,82.7c4,0,6.6,3.2,6.6,7.2c0,4-2.6,7.2-6.6,7.2c-4,0-6.6-3.2-6.6-7.2C252.9,85.8,255.4,82.7,259.4,82.7z
		 M259.4,83.3c-3.6,0-5.9,2.7-5.9,6.6c0,3.8,2.3,6.6,5.9,6.6c3.6,0,5.9-2.8,5.9-6.6C265.3,86.1,263,83.3,259.4,83.3z"/>
	<path class="st0" d="M277.2,84v12.8h-0.7V82.9h0.7l9.4,12.7V82.9h0.7v13.9h-0.7L277.2,84z"/>
</g>
<g>
	<path class="st1" d="M102.2,129.6l-0.1,0.5h-6.1l0.1-0.5h0.3c0.4,0,0.8-0.1,1.1-0.2c0.3-0.2,0.5-0.3,0.6-0.6s0.3-0.7,0.5-1.4
		l2.8-9.2c0.2-0.7,0.3-1.2,0.3-1.3c0-0.5-0.5-0.8-1.4-0.8H100l0.1-0.5h5.7l-0.1,0.5h-0.3c-0.3,0-0.7,0.1-0.9,0.2
		c-0.3,0.1-0.5,0.3-0.6,0.5c-0.1,0.2-0.3,0.8-0.6,1.7l-2.7,8.9c-0.2,0.7-0.3,1.1-0.3,1.3c0,0.3,0.2,0.6,0.5,0.8
		c0.3,0.2,0.6,0.2,1,0.2H102.2z"/>
	<path class="st1" d="M112.3,128.1h0.5c-0.4,0.8-0.9,1.3-1.3,1.7c-0.4,0.4-0.9,0.6-1.4,0.6c-0.3,0-0.6-0.1-0.8-0.3
		c-0.2-0.2-0.3-0.5-0.3-0.9c0-0.3,0.2-1,0.5-1.9l1.1-3.3c0.3-0.9,0.5-1.5,0.5-1.7c0-0.2-0.1-0.4-0.2-0.5c-0.1-0.1-0.3-0.2-0.5-0.2
		c-0.5,0-1.2,0.6-2.1,1.9c-0.9,1.3-1.6,2.9-2.2,5l-0.5,1.7h-1.3l1.9-6.1c0.3-1.1,0.5-1.8,0.5-1.9c0-0.1,0-0.2-0.1-0.3
		c0-0.1-0.1-0.1-0.2-0.1c-0.4,0-0.9,0.5-1.5,1.6h-0.5c0.9-1.6,1.7-2.4,2.5-2.4c0.3,0,0.5,0.1,0.6,0.3c0.1,0.2,0.2,0.4,0.2,0.8
		c0,0.6-0.2,1.6-0.7,2.8c1.3-2.6,2.5-3.9,3.8-3.9c0.4,0,0.7,0.1,1,0.4s0.4,0.6,0.4,1.1c0,0.3-0.1,0.9-0.4,1.8l-1.1,3.4
		c-0.3,0.9-0.5,1.4-0.5,1.5c0,0.1,0,0.2,0.1,0.3c0.1,0.1,0.2,0.1,0.3,0.1c0.2,0,0.5-0.1,0.8-0.4C111.7,129,112,128.6,112.3,128.1z"
		/>
	<path class="st1" d="M118.5,127.8c0,0.7-0.3,1.3-0.8,1.8c-0.5,0.6-1.3,0.8-2.2,0.8c-0.7,0-1.3-0.2-1.7-0.5c-0.4-0.3-0.6-0.7-0.6-1
		c0-0.2,0.1-0.4,0.2-0.5s0.3-0.2,0.4-0.2c0.4,0,0.6,0.2,0.6,0.6c0,0.1,0,0.2-0.1,0.4c0,0.1,0,0.1,0,0.2c0,0.2,0.1,0.3,0.3,0.4
		c0.2,0.1,0.5,0.2,0.8,0.2c0.5,0,0.9-0.2,1.3-0.5s0.6-0.7,0.6-1.3c0-0.5-0.3-1.2-0.8-2.2c-0.6-1.2-1-2-1-2.5c0-0.7,0.3-1.3,0.8-1.7
		c0.5-0.5,1.2-0.7,1.8-0.7c0.5,0,0.9,0.1,1.3,0.4c0.4,0.3,0.5,0.5,0.5,0.8c0,0.4-0.2,0.6-0.5,0.6c-0.2,0-0.4-0.2-0.5-0.6
		c-0.1-0.5-0.4-0.7-0.9-0.7c-0.4,0-0.8,0.1-1.1,0.3c-0.3,0.2-0.4,0.5-0.4,0.9c0,0.5,0.2,1.2,0.7,2c0.4,0.8,0.7,1.4,0.9,1.8
		S118.5,127.3,118.5,127.8z"/>
	<path class="st1" d="M120.8,125.7h-0.5l2-3.2c0.6-0.9,1-1.6,1.2-2s0.4-1,0.6-1.8l0.1-0.5h1.3l-0.7,2.4l-0.9,2.5c1-1.4,1.9-2,2.8-2
		c0.5,0,1,0.2,1.3,0.7c0.4,0.5,0.6,1.1,0.6,1.8c0,0.9-0.2,1.8-0.7,3c-0.4,1.1-1.1,2-1.9,2.7c-0.8,0.7-1.6,1.1-2.4,1.1
		c-0.8,0-1.3-0.4-1.5-1.1l-1.2,4.1c-0.2,0.5-0.2,0.8-0.2,0.9c0,0.1,0.1,0.2,0.2,0.3c0.1,0.1,0.4,0.1,0.9,0.1h0.5l-0.1,0.5h-4.5
		l0.2-0.5h0.2c0.6,0,1,0,1.1-0.1c0.1-0.1,0.3-0.5,0.6-1.3l2.2-7.3c0.5-1.5,1-3.1,1.6-4.7c-0.1,0.1-0.3,0.4-0.6,1
		c0,0.1-0.1,0.2-0.3,0.5L120.8,125.7z M122.8,127.3c-0.2,0.6-0.3,1.1-0.3,1.4c0,0.3,0.1,0.6,0.3,0.9s0.5,0.4,0.8,0.4
		c0.5,0,1.1-0.3,1.6-0.9s1-1.6,1.5-3c0.5-1.4,0.7-2.4,0.7-3.1c0-0.5-0.1-0.8-0.2-1c-0.1-0.2-0.4-0.3-0.6-0.3c-0.4,0-0.9,0.3-1.5,0.8
		c-0.6,0.6-1.2,1.7-1.8,3.5L122.8,127.3z"/>
	<path class="st1" d="M133.7,127.8h0.5c-0.3,0.7-0.8,1.3-1.3,1.8s-1.1,0.8-1.6,0.8c-0.3,0-0.6-0.1-0.9-0.4s-0.4-0.6-0.4-1.1
		c0-0.4,0.2-1.1,0.6-2.2l1.2-3.3c0.3-0.8,0.4-1.2,0.4-1.4c0-0.1,0-0.2-0.1-0.3c-0.1-0.1-0.2-0.1-0.3-0.1c-0.3,0-0.6,0.2-1,0.6
		s-0.7,0.8-0.8,1.2h-0.5c0.4-0.8,0.8-1.4,1.3-1.8c0.5-0.4,1-0.7,1.4-0.7c0.3,0,0.6,0.1,0.8,0.3c0.2,0.2,0.3,0.5,0.3,0.9
		c0,0.4-0.2,1.1-0.6,2.1l-1,2.8c-0.4,1-0.6,1.6-0.6,1.9c0,0.2,0,0.4,0.1,0.5s0.2,0.2,0.4,0.2C132.4,129.7,133,129,133.7,127.8z
		 M132.9,116.3c0-0.3,0.1-0.5,0.3-0.7s0.4-0.3,0.7-0.3c0.3,0,0.5,0.1,0.7,0.3s0.3,0.4,0.3,0.7c0,0.3-0.1,0.5-0.3,0.7
		s-0.4,0.3-0.7,0.3c-0.3,0-0.5-0.1-0.7-0.3C133,116.8,132.9,116.6,132.9,116.3z"/>
	<path class="st1" d="M135.4,123.9h-0.5c0.3-0.8,0.7-1.5,1.1-2s0.9-0.8,1.3-0.8c0.3,0,0.5,0.1,0.7,0.4c0.1,0.2,0.2,0.6,0.2,1.1
		c0,0.6-0.2,1.5-0.5,2.6c0-0.1,0.2-0.3,0.4-0.8c0.5-1.2,1-2,1.4-2.6c0.4-0.5,0.8-0.8,1.2-0.8c0.2,0,0.4,0.1,0.6,0.2
		c0.1,0.2,0.2,0.3,0.2,0.6c0,0.2-0.1,0.4-0.2,0.5c-0.1,0.1-0.3,0.2-0.4,0.2c-0.2,0-0.4-0.1-0.6-0.4c-0.1-0.1-0.2-0.1-0.2-0.1
		c-0.4,0-0.9,0.9-1.6,2.6c-0.7,1.7-1.3,3.3-1.8,4.8l-0.2,0.8h-1.3l1.7-5.7c0.3-1.1,0.5-1.8,0.5-2.2c0-0.2,0-0.4-0.1-0.5
		c-0.1-0.1-0.1-0.1-0.2-0.1c-0.2,0-0.5,0.3-0.9,0.8C135.8,123.1,135.5,123.5,135.4,123.9z"/>
	<path class="st1" d="M145.4,127.8h0.5c-0.3,0.7-0.8,1.3-1.3,1.8s-1.1,0.8-1.6,0.8c-0.3,0-0.6-0.1-0.9-0.4s-0.4-0.6-0.4-1.1
		c0-0.4,0.2-1.1,0.6-2.2l1.2-3.3c0.3-0.8,0.4-1.2,0.4-1.4c0-0.1,0-0.2-0.1-0.3c-0.1-0.1-0.2-0.1-0.3-0.1c-0.3,0-0.6,0.2-1,0.6
		s-0.7,0.8-0.8,1.2h-0.5c0.4-0.8,0.8-1.4,1.3-1.8c0.5-0.4,1-0.7,1.4-0.7c0.3,0,0.6,0.1,0.8,0.3c0.2,0.2,0.3,0.5,0.3,0.9
		c0,0.4-0.2,1.1-0.6,2.1l-1,2.8c-0.4,1-0.6,1.6-0.6,1.9c0,0.2,0,0.4,0.1,0.5s0.2,0.2,0.4,0.2C144,129.7,144.6,129,145.4,127.8z
		 M144.6,116.3c0-0.3,0.1-0.5,0.3-0.7s0.4-0.3,0.7-0.3c0.3,0,0.5,0.1,0.7,0.3s0.3,0.4,0.3,0.7c0,0.3-0.1,0.5-0.3,0.7
		s-0.4,0.3-0.7,0.3c-0.3,0-0.5-0.1-0.7-0.3C144.7,116.8,144.6,116.6,144.6,116.3z"/>
	<path class="st1" d="M154.5,128.1h0.5c-0.4,0.8-0.9,1.3-1.3,1.7c-0.4,0.4-0.9,0.6-1.4,0.6c-0.3,0-0.6-0.1-0.8-0.3
		c-0.2-0.2-0.3-0.5-0.3-0.9c0-0.3,0.2-1,0.5-1.9l1.1-3.3c0.3-0.9,0.5-1.5,0.5-1.7c0-0.2-0.1-0.4-0.2-0.5c-0.1-0.1-0.3-0.2-0.5-0.2
		c-0.5,0-1.2,0.6-2.1,1.9c-0.9,1.3-1.6,2.9-2.2,5l-0.5,1.7h-1.3l1.9-6.1c0.3-1.1,0.5-1.8,0.5-1.9c0-0.1,0-0.2-0.1-0.3
		c0-0.1-0.1-0.1-0.2-0.1c-0.4,0-0.9,0.5-1.5,1.6h-0.5c0.9-1.6,1.7-2.4,2.5-2.4c0.3,0,0.5,0.1,0.6,0.3c0.1,0.2,0.2,0.4,0.2,0.8
		c0,0.6-0.2,1.6-0.7,2.8c1.3-2.6,2.5-3.9,3.8-3.9c0.4,0,0.7,0.1,1,0.4c0.3,0.3,0.4,0.6,0.4,1.1c0,0.3-0.1,0.9-0.4,1.8l-1.1,3.4
		c-0.3,0.9-0.5,1.4-0.5,1.5c0,0.1,0,0.2,0.1,0.3c0.1,0.1,0.2,0.1,0.3,0.1c0.2,0,0.5-0.1,0.8-0.4C153.9,129,154.2,128.6,154.5,128.1z
		"/>
	<path class="st1" d="M158,127.5c-0.5-0.3-0.8-0.6-1-1c-0.2-0.4-0.3-0.9-0.3-1.5c0-1,0.4-2,1.1-2.8c0.7-0.8,1.6-1.2,2.5-1.2
		c0.3,0,0.6,0,0.8,0.1s0.5,0.2,0.7,0.4c0.5-0.4,0.9-0.6,1.2-0.6c0.3,0,0.5,0.1,0.6,0.2c0.2,0.1,0.2,0.3,0.2,0.6
		c0,0.3-0.2,0.5-0.5,0.5c-0.2,0-0.4-0.1-0.5-0.4c-0.1-0.2-0.2-0.2-0.3-0.2c-0.1,0-0.2,0.1-0.4,0.3c0.3,0.5,0.4,1,0.4,1.7
		c0,1.2-0.4,2.2-1.1,2.9c-0.7,0.7-1.6,1.1-2.6,1.3c-1.5,0.2-2.3,0.6-2.3,1.2c0,0.2,0.1,0.4,0.3,0.5s0.6,0.3,1.1,0.4
		c1,0.2,1.8,0.4,2.4,0.6c0.6,0.2,1.1,0.4,1.4,0.8c0.3,0.3,0.5,0.8,0.5,1.2c0,0.7-0.4,1.4-1.1,1.9c-0.7,0.5-1.8,0.8-3.2,0.8
		c-1.3,0-2.3-0.2-3-0.6c-0.7-0.4-1.1-0.9-1.1-1.6c0-0.5,0.2-0.9,0.5-1.2c0.3-0.3,0.6-0.5,0.9-0.5c0.2,0,0.4,0.1,0.4,0.3
		c0,0.1-0.1,0.2-0.3,0.4c-0.3,0.3-0.4,0.6-0.4,0.9c0,0.5,0.2,0.9,0.7,1.2c0.5,0.4,1.2,0.5,2.2,0.5c1,0,1.8-0.2,2.4-0.5
		s0.8-0.8,0.8-1.2c0-0.4-0.2-0.7-0.6-0.9c-0.4-0.2-1.2-0.5-2.5-0.8c-1.1-0.3-1.8-0.5-2-0.8c-0.3-0.3-0.4-0.6-0.4-0.9
		c0-0.4,0.2-0.9,0.7-1.3C156.5,128,157.2,127.7,158,127.5z M157.8,126c0,0.4,0.1,0.7,0.3,1s0.5,0.4,0.8,0.4c0.4,0,0.7-0.2,1.1-0.5
		c0.3-0.3,0.6-0.9,0.9-1.7c0.3-0.8,0.4-1.6,0.4-2.2c0-0.5-0.1-0.9-0.3-1.1c-0.2-0.2-0.4-0.4-0.8-0.4c-0.6,0-1.2,0.5-1.7,1.6
		C158,124.1,157.8,125.1,157.8,126z"/>
	<path class="st1" d="M176.7,124.6h-4.1l-1.3,2c-0.4,0.7-0.7,1.1-0.8,1.3c-0.1,0.2-0.1,0.4-0.1,0.6c0,0.7,0.5,1.1,1.5,1.1l0.4,0
		l-0.1,0.5H167l0.1-0.5c0.7-0.1,1.3-0.3,1.7-0.7s1.1-1.3,2-2.5l7.4-11h0.7l-0.5,11.7l-0.1,1.3c0,0.5,0.1,0.8,0.4,0.9
		c0.3,0.2,0.7,0.2,1.3,0.3l-0.1,0.5h-5.7l0.1-0.5c0.8,0,1.3-0.1,1.5-0.3c0.3-0.2,0.4-0.4,0.5-0.7s0.1-0.8,0.1-1.6L176.7,124.6z
		 M176.8,124.1l0.3-6.2l-4.1,6.2H176.8z"/>
	<path class="st1" d="M182.4,122.7h-0.5c0.3-1.1,0.7-1.6,1.1-1.6c0.3,0,0.6,0.2,0.9,0.5c0.3,0.3,0.6,0.5,0.8,0.5
		c0.2,0,0.3-0.2,0.4-0.5c0.1-0.4,0.3-0.6,0.5-0.6s0.3,0.1,0.3,0.3c0,0.1-0.2,0.5-0.6,1.2c-0.9,1.5-1.5,2.8-1.8,3.8s-0.4,1.7-0.4,2.1
		c0,0.4,0.1,0.7,0.3,0.9c0.2,0.3,0.4,0.4,0.7,0.4c0.5,0,1-0.2,1.6-0.7c0.6-0.4,1.1-0.9,1.5-1.3c0-0.2,0-0.4,0-0.6
		c0-1.5,0.3-2.8,0.9-4.1c0.6-1.3,1.2-1.9,1.9-1.9c0.3,0,0.5,0.1,0.6,0.3s0.2,0.5,0.2,0.9c0,0.7-0.2,1.4-0.6,2.2
		c-0.4,0.8-0.9,1.6-1.7,2.5c0.1,0.9,0.2,1.6,0.5,2.1c0.3,0.5,0.7,0.7,1.1,0.7c0.4,0,0.9-0.2,1.5-0.7c0.6-0.5,1.1-1.2,1.5-2.2
		c0.4-1,0.7-1.8,0.7-2.5c0-0.4-0.1-0.9-0.3-1.4c-0.2-0.4-0.3-0.8-0.3-1.1c0-0.2,0.1-0.4,0.2-0.5c0.1-0.1,0.2-0.2,0.4-0.2
		c0.2,0,0.4,0.1,0.6,0.4c0.2,0.3,0.3,0.7,0.3,1.4c0,0.9-0.2,2.1-0.7,3.4c-0.5,1.4-1.1,2.4-1.9,3.1c-0.8,0.7-1.6,1-2.3,1
		c-0.6,0-1.1-0.2-1.5-0.7c-0.4-0.5-0.6-0.9-0.7-1.4c-0.7,0.7-1.3,1.2-2,1.6c-0.6,0.4-1.2,0.5-1.8,0.5c-0.6,0-1-0.2-1.3-0.5
		s-0.5-0.8-0.5-1.4c0-1.2,0.8-2.9,2.3-5c0.4-0.5,0.6-0.8,0.7-1c-0.3,0.2-0.6,0.3-0.9,0.3c-0.2,0-0.5-0.1-0.8-0.4
		c-0.1-0.1-0.2-0.2-0.3-0.2C182.6,122.2,182.5,122.3,182.4,122.7L182.4,122.7z M188.5,126.3c0.6-0.8,1.1-1.6,1.4-2.2
		s0.5-1.3,0.5-1.8c0-0.2,0-0.4-0.1-0.5s-0.2-0.2-0.3-0.2c-0.3,0-0.6,0.4-0.9,1.1c-0.3,0.7-0.5,1.7-0.5,3.1
		C188.5,125.9,188.5,126,188.5,126.3z"/>
	<path class="st1" d="M200.2,127.4h0.5c-0.9,2-2.1,3-3.5,3c-0.6,0-1.1-0.2-1.4-0.6c-0.4-0.4-0.6-1-0.6-1.7c0-0.9,0.2-1.9,0.7-3
		s1.1-2.1,2-2.9c0.9-0.8,1.6-1.2,2.3-1.2c0.4,0,0.7,0.1,0.9,0.4c0.2,0.3,0.3,0.6,0.3,0.9c0,0.8-0.4,1.5-1.2,2.2
		c-0.8,0.7-1.9,1.4-3.5,2c-0.2,0.6-0.3,1.2-0.3,1.8c0,0.5,0.1,0.8,0.3,1c0.2,0.2,0.4,0.3,0.8,0.3C198.6,129.8,199.5,129,200.2,127.4
		z M197,126.1c0.9-0.4,1.7-1,2.5-1.7s1.1-1.4,1.1-2c0-0.3-0.1-0.5-0.2-0.6s-0.3-0.2-0.5-0.2c-0.4,0-0.9,0.4-1.5,1.2
		C197.9,123.7,197.4,124.8,197,126.1z"/>
	<path class="st1" d="M212,121.1c-0.3-0.7-0.5-1.3-0.5-1.9c0-0.7,0.2-1.3,0.6-1.9c0.4-0.6,0.9-1,1.5-1.4s1.3-0.5,1.9-0.5
		c0.7,0,1.4,0.2,1.9,0.6c0.5,0.4,0.7,0.9,0.7,1.5c0,0.4-0.1,0.8-0.4,1.2s-0.5,0.5-0.8,0.5c-0.1,0-0.2-0.1-0.2-0.2c0,0,0-0.2,0.1-0.3
		c0.1-0.3,0.2-0.6,0.2-0.8c0-0.4-0.2-0.8-0.5-1c-0.3-0.3-0.8-0.4-1.3-0.4c-0.8,0-1.5,0.3-2.2,1c-0.7,0.7-1,1.4-1,2.2
		c0,0.4,0,0.7,0.1,1s0.2,0.4,0.3,0.5s0.2,0.1,0.3,0.1c1,0,1.5,0.3,1.5,0.9c0,0.1-0.1,0.3-0.2,0.4c-0.1,0.1-0.3,0.2-0.5,0.2
		c-0.2,0-0.5-0.1-0.8-0.4c-0.4-0.3-0.7-0.5-1.1-0.5c-0.4,0-0.9,0.2-1.3,0.7s-0.6,1-0.6,1.6c0,1.2,0.6,2.3,1.8,3.4
		c1.2,1.1,2.7,1.6,4.4,1.6c1.7,0,3.1-0.4,4.3-1.2c1.2-0.8,1.8-1.8,1.8-3c0-0.8-0.3-1.4-0.9-2s-1.4-0.8-2.4-0.8
		c-0.8,0-1.5,0.2-2.2,0.7c-0.6,0.4-0.9,1-0.9,1.7c0,0.4,0.1,0.7,0.3,1c0.2,0.3,0.5,0.4,0.7,0.4c0.3,0,0.4-0.1,0.4-0.4l0-0.1
		c0-0.1,0-0.2,0-0.2c0-0.3,0.1-0.6,0.3-0.8s0.4-0.3,0.7-0.3c0.2,0,0.5,0.1,0.7,0.3c0.2,0.2,0.3,0.4,0.3,0.7c0,0.4-0.2,0.8-0.5,1.1
		c-0.3,0.3-0.7,0.4-1.2,0.4c-0.6,0-1.1-0.2-1.5-0.6c-0.4-0.4-0.6-0.9-0.6-1.5c0-0.9,0.4-1.7,1.1-2.4s2.1-1.1,4-1.1
		c1.7,0,3-0.2,3.8-0.7c0.8-0.5,1.2-1.2,1.2-2.1c0-0.6-0.2-1-0.5-1.4c-0.3-0.4-0.8-0.6-1.3-0.6c-0.3,0-0.5,0-0.6,0.1
		c-0.1,0.1-0.2,0.2-0.2,0.3c0,0.1,0.1,0.2,0.2,0.4c0.2,0.2,0.2,0.5,0.2,0.7c0,0.3-0.1,0.5-0.3,0.7s-0.5,0.3-0.8,0.3
		c-0.4,0-0.6-0.1-0.8-0.3c-0.2-0.2-0.3-0.5-0.3-0.8c0-0.5,0.2-0.9,0.7-1.3s1.1-0.6,1.8-0.6c0.8,0,1.4,0.3,1.9,0.8s0.8,1.2,0.8,2
		c0,0.7-0.2,1.4-0.6,2c-0.4,0.6-1,1-1.6,1.3c-0.7,0.2-1.6,0.4-2.8,0.4c1.1,0.8,1.7,1.8,1.7,3.1c0,0.9-0.3,1.9-1,2.7
		c-0.7,0.9-1.5,1.5-2.5,2c-1,0.4-2.2,0.6-3.6,0.6c-1.2,0-2.1-0.1-2.8-0.4s-1.4-0.6-2.1-1.1c-0.7-0.5-1.2-1.1-1.5-1.8
		c-0.4-0.7-0.6-1.5-0.6-2.3c0-1,0.3-1.8,0.8-2.5C210.1,121.7,210.9,121.3,212,121.1z"/>
	<path class="st1" d="M243.8,130.5h-0.7l0.3-11.9l-7.9,11.9h-0.6l0.6-12.5l0-0.7c0-0.4-0.1-0.7-0.3-0.9c-0.2-0.2-0.6-0.2-1.2-0.3
		l0.1-0.5h5.2l-0.1,0.5c-0.8,0-1.3,0.1-1.4,0.4s-0.3,0.8-0.3,1.6l-0.5,9.6l8-12h0.5l-0.3,12l5.6-8.7c0.5-0.8,0.8-1.4,0.8-1.7
		c0-0.6-0.5-1-1.5-1.1l0.1-0.5h4.4l-0.1,0.5c-0.6,0-1.1,0.2-1.5,0.6s-1,1.2-1.7,2.4L243.8,130.5z"/>
	<path class="st1" d="M250,127.3c0-0.9,0.2-1.8,0.6-2.8c0.4-1,1-1.8,1.7-2.5c0.7-0.6,1.5-0.9,2.2-0.9c0.6,0,1.2,0.3,1.6,0.8
		c0.4,0.5,0.6,1.3,0.6,2.2c0,1.1-0.2,2.2-0.7,3.2c-0.5,1-1,1.8-1.7,2.3c-0.7,0.5-1.4,0.8-2,0.8c-0.6,0-1.1-0.2-1.6-0.7
		C250.2,129.2,250,128.4,250,127.3z M251.1,128.5c0,0.4,0.1,0.7,0.3,1c0.2,0.3,0.5,0.4,0.8,0.4c1,0,1.7-0.9,2.4-2.7
		c0.6-1.8,0.9-3.2,0.9-4.1c0-0.5-0.1-0.9-0.3-1.1c-0.2-0.2-0.5-0.4-0.8-0.4c-0.9,0-1.7,0.8-2.3,2.5
		C251.5,125.8,251.1,127.2,251.1,128.5z"/>
	<path class="st1" d="M265.7,128.1h0.5c-0.4,0.8-0.9,1.3-1.3,1.7c-0.4,0.4-0.9,0.6-1.4,0.6c-0.3,0-0.6-0.1-0.8-0.3
		c-0.2-0.2-0.3-0.5-0.3-0.9c0-0.3,0.2-1,0.5-1.9l1.1-3.3c0.3-0.9,0.5-1.5,0.5-1.7c0-0.2-0.1-0.4-0.2-0.5c-0.1-0.1-0.3-0.2-0.5-0.2
		c-0.5,0-1.2,0.6-2.1,1.9c-0.9,1.3-1.6,2.9-2.2,5l-0.5,1.7h-1.3l1.9-6.1c0.3-1.1,0.5-1.8,0.5-1.9c0-0.1,0-0.2-0.1-0.3
		c0-0.1-0.1-0.1-0.2-0.1c-0.4,0-0.9,0.5-1.5,1.6h-0.5c0.9-1.6,1.7-2.4,2.5-2.4c0.3,0,0.5,0.1,0.6,0.3c0.1,0.2,0.2,0.4,0.2,0.8
		c0,0.6-0.2,1.6-0.7,2.8c1.3-2.6,2.5-3.9,3.8-3.9c0.4,0,0.7,0.1,1,0.4s0.4,0.6,0.4,1.1c0,0.3-0.1,0.9-0.4,1.8l-1.1,3.4
		c-0.3,0.9-0.5,1.4-0.5,1.5c0,0.1,0,0.2,0.1,0.3c0.1,0.1,0.2,0.1,0.3,0.1c0.2,0,0.5-0.1,0.8-0.4C265.1,129,265.4,128.6,265.7,128.1z
		"/>
	<path class="st1" d="M274.9,128.2h0.5c-0.3,0.6-0.7,1.1-1.2,1.6c-0.5,0.5-0.9,0.7-1.3,0.7c-0.4,0-0.7-0.1-0.9-0.3
		c-0.2-0.2-0.3-0.6-0.3-1c0-0.2,0-0.4,0.1-0.6c-1,1.3-1.9,1.9-2.8,1.9c-0.5,0-0.9-0.2-1.2-0.6c-0.3-0.4-0.5-1-0.5-1.7
		c0-1,0.3-2.1,0.9-3.3c0.6-1.2,1.3-2.1,2.1-2.8c0.8-0.7,1.6-1,2.2-1c0.3,0,0.6,0.1,0.8,0.2c0.2,0.2,0.4,0.4,0.5,0.7l1.3-4.3
		c0.2-0.5,0.2-0.8,0.2-0.9c0-0.2,0-0.3-0.1-0.4c-0.1-0.1-0.3-0.1-0.7-0.1h-0.3l0.1-0.4c1,0,1.9-0.1,2.5-0.4h0.3l-3.4,11.3
		c-0.4,1.4-0.6,2.2-0.6,2.5c0,0.2,0,0.3,0.1,0.4s0.2,0.1,0.3,0.1c0.2,0,0.5-0.1,0.7-0.4C274.3,129,274.5,128.7,274.9,128.2z
		 M268.4,128.6c0,0.4,0.1,0.7,0.2,0.9s0.3,0.3,0.6,0.3c0.5,0,1-0.3,1.7-1s1.2-1.8,1.7-3.3c0.5-1.5,0.8-2.5,0.8-2.9
		c0-0.3-0.1-0.5-0.3-0.7c-0.2-0.2-0.4-0.3-0.7-0.3c-0.5,0-0.9,0.3-1.5,0.8s-1.1,1.5-1.7,2.8C268.7,126.6,268.4,127.7,268.4,128.6z"
		/>
	<path class="st1" d="M281.2,127.4h0.5c-0.9,2-2.1,3-3.5,3c-0.6,0-1.1-0.2-1.4-0.6c-0.4-0.4-0.5-1-0.5-1.7c0-0.9,0.2-1.9,0.7-3
		s1.1-2.1,2-2.9s1.6-1.2,2.3-1.2c0.4,0,0.7,0.1,0.9,0.4s0.3,0.6,0.3,0.9c0,0.8-0.4,1.5-1.2,2.2s-1.9,1.4-3.5,2
		c-0.2,0.6-0.3,1.2-0.3,1.8c0,0.5,0.1,0.8,0.3,1c0.2,0.2,0.4,0.3,0.8,0.3C279.6,129.8,280.4,129,281.2,127.4z M278,126.1
		c0.9-0.4,1.7-1,2.5-1.7c0.7-0.7,1.1-1.4,1.1-2c0-0.3-0.1-0.5-0.2-0.6s-0.3-0.2-0.5-0.2c-0.4,0-0.9,0.4-1.5,1.2
		C278.8,123.7,278.3,124.8,278,126.1z"/>
	<path class="st1" d="M283.3,123.9h-0.5c0.3-0.8,0.7-1.5,1.1-2c0.5-0.6,0.9-0.8,1.3-0.8c0.3,0,0.5,0.1,0.7,0.4
		c0.1,0.2,0.2,0.6,0.2,1.1c0,0.6-0.2,1.5-0.5,2.6c0-0.1,0.2-0.3,0.4-0.8c0.5-1.2,1-2,1.4-2.6c0.4-0.5,0.8-0.8,1.2-0.8
		c0.2,0,0.4,0.1,0.6,0.2c0.1,0.2,0.2,0.3,0.2,0.6c0,0.2-0.1,0.4-0.2,0.5c-0.1,0.1-0.3,0.2-0.4,0.2c-0.2,0-0.4-0.1-0.6-0.4
		c-0.1-0.1-0.2-0.1-0.2-0.1c-0.4,0-0.9,0.9-1.6,2.6c-0.7,1.7-1.3,3.3-1.8,4.8l-0.2,0.8h-1.3l1.7-5.7c0.3-1.1,0.5-1.8,0.5-2.2
		c0-0.2,0-0.4-0.1-0.5s-0.1-0.1-0.2-0.1c-0.2,0-0.5,0.3-0.9,0.8C283.7,123.1,283.5,123.5,283.3,123.9z"/>
</g>
</svg>
